<?xml version="1.0" encoding="UTF-8"?> <!-- Generator: Adobe Illustrator 18.0.0, SVG Export Plug-In . SVG Version: 6.00 Build 0) --> <svg xmlns="http://www.w3.org/2000/svg" xmlns:xlink="http://www.w3.org/1999/xlink" id="Capa_1" x="0px" y="0px" viewBox="0 0 512 512" xml:space="preserve"> <g> <g opacity="0.15"> <path fill="#FF5F82" d="M441.2,87v-8.4h-41.9c-0.2,0-0.4-0.1-0.6-0.1v50.4c0.2,0,0.4,0.1,0.6,0.1 C422.4,128.9,441.2,110.1,441.2,87z"></path> <path fill="#FF5F82" d="M398.6,57.7l4.1,4.1h46.1c-4.1-24.2-25.1-41.9-49.6-41.9c-0.2,0-0.4,0.1-0.6,0.1V57.7z"></path> <path fill="#FF5F82" d="M442.6,167.4l-35,48.1v81.2H458v-75.5h16.8v75.5h16.8V238C491.5,206.6,472,178.5,442.6,167.4z"></path> <path fill="#FF5F82" d="M416,162.5h-17.4v35.2l0.6,0.9l25.8-35.5C422.1,162.7,419.1,162.5,416,162.5z"></path> </g> <g opacity="0.15"> <path fill="#FF5F82" d="M156,280v-8.4H114c-0.2,0-0.4-0.1-0.6-0.1v50.4c0.2,0,0.4,0.1,0.6,0.1C137.2,321.9,155.9,303.1,156,280z"></path> <path fill="#FF5F82" d="M113.4,250.7l4.1,4.1h46.1c-4.1-24.2-25.1-41.9-49.6-41.9c-0.2,0-0.4,0.1-0.6,0.1V250.7z"></path> <path fill="#FF5F82" d="M157.4,360.4l-35,48.1v81.2h50.3v-75.5h16.8v75.5h16.8V431C206.3,399.6,186.8,371.5,157.4,360.4z"></path> <path fill="#FF5F82" d="M130.8,355.5h-17.4v35.2l0.6,0.9l25.8-35.5C136.8,355.7,133.8,355.5,130.8,355.5z"></path> </g> <g> <path fill="#FF5F82" d="M172.1,280v-8.4c4.6,0,8.4-3.8,8.4-8.4c0-37.1-30-67.1-67.1-67.1s-67.1,30-67.1,67.1 c0,4.6,3.8,8.4,8.4,8.4v8.4c0,32.4,26.3,58.7,58.7,58.7S172.1,312.4,172.1,280z M113.4,212.9c24.6,0,45.5,17.7,49.6,41.9h-46.1 l-22.7-22.7c-2.1-2.1-5-2.9-7.9-2.2c-2.8,0.7-5.1,2.8-6,5.5l-6.5,19.4H63.7C67.8,230.6,88.8,212.9,113.4,212.9z M113.4,321.9 c-23.2,0-41.9-18.8-41.9-41.9v-8.4h8.4c3.6,0,6.8-2.3,8-5.7l4.1-12.3l15.6,15.6c1.6,1.6,3.7,2.5,5.9,2.5h41.9v8.4 C155.3,303.1,136.5,321.9,113.4,321.9z"></path> <path fill="#FF5F82" d="M130.2,338.7H96.6C45.7,338.8,4.4,380,4.3,431v67.1c0,4.6,3.8,8.4,8.4,8.4h201.3c4.6,0,8.4-3.8,8.4-8.4 V431C222.4,380,181.1,338.8,130.2,338.7z M130.2,355.5c3,0,6,0.2,9,0.6l-25.8,35.5l-25.8-35.5c3-0.4,6-0.6,9-0.6H130.2z M21.1,431 c0.1-31.4,19.5-59.5,48.9-70.6l35,48.1v81.2H54.7v-75.5H37.9v75.5H21.1V431z M205.7,489.7h-16.8v-75.5h-16.8v75.5h-50.3v-81.2 l35-48.1c29.4,11.1,48.8,39.2,48.9,70.6V489.7z"></path> <path fill="#FF5F82" d="M146.9,389h16.8v16.8h-16.8V389z"></path> <path fill="#FF5F82" d="M457.3,87v-8.4c4.6,0,8.4-3.8,8.4-8.4c0-37.1-30-67.1-67.1-67.1s-67.1,30-67.1,67.1c0,4.6,3.8,8.4,8.4,8.4 V87c0,32.4,26.3,58.7,58.7,58.7S457.3,119.5,457.3,87z M398.6,19.9c24.6,0,45.5,17.7,49.6,41.9h-46.1l-22.7-22.7 c-2.1-2.1-5-2.9-7.9-2.2c-2.8,0.7-5.1,2.8-6,5.5L359,61.9h-10.1C353.1,37.6,374,19.9,398.6,19.9z M398.6,129 c-23.2,0-41.9-18.8-41.9-41.9v-8.4h8.4c3.6,0,6.8-2.3,8-5.7l4.1-12.3l15.6,15.6c1.6,1.6,3.7,2.5,5.9,2.5h41.9V87 C440.5,110.2,421.8,128.9,398.6,129z"></path> <path fill="#FF5F82" d="M415.4,145.7h-33.6c-50.9,0.1-92.2,41.3-92.3,92.3v67.1c0,4.6,3.8,8.4,8.4,8.4h201.3 c4.6,0,8.4-3.8,8.4-8.4V238C507.6,187.1,466.3,145.8,415.4,145.7z M415.4,162.5c3,0,6,0.2,9,0.6l-25.8,35.5l-25.8-35.5 c3-0.4,6-0.6,9-0.6H415.4z M306.3,238c0.1-31.4,19.5-59.5,48.9-70.6l35,48.1v81.2h-50.3v-75.5h-16.8v75.5h-16.8V238z M490.9,296.7 h-16.8v-75.5h-16.8v75.5H407v-81.2l35-48.1c29.4,11.1,48.8,39.2,48.9,70.6V296.7z"></path> <path fill="#FF5F82" d="M432.2,196.1h16.8v16.8h-16.8V196.1z"></path> <path fill="#FF5F82" d="M401.1,332.8l-35.6,35.6l11.9,11.9l21.3-21.3v63.6c0,13.9-11.3,25.2-25.2,25.2H239.2v16.8h134.2 c23.2,0,41.9-18.8,41.9-41.9v-63.6l21.3,21.3l11.9-11.9l-35.6-35.6C409.7,329.5,404.3,329.5,401.1,332.8z"></path> <path fill="#FF5F82" d="M113.4,179.3c2.2,0,4.4-0.9,5.9-2.5l35.6-35.6l-11.9-11.9l-21.3,21.3V87c0-13.9,11.3-25.2,25.2-25.2h151 V45.1h-151C123.8,45.1,105,63.9,105,87v63.6l-21.3-21.3l-11.9,11.9l35.6,35.6C109,178.4,111.2,179.3,113.4,179.3z"></path> </g> </g> </svg> 