<?xml version="1.0" encoding="UTF-8"?> <!-- Generator: Adobe Illustrator 18.0.0, SVG Export Plug-In . SVG Version: 6.00 Build 0) --> <svg xmlns="http://www.w3.org/2000/svg" xmlns:xlink="http://www.w3.org/1999/xlink" id="Capa_1" x="0px" y="0px" viewBox="0 0 512 512" xml:space="preserve"> <g> <path opacity="0.15" fill="#FF5F82" d="M293.7,432.1h-40.5v16.2h40.5c4.5,0,8.1-3.6,8.1-8.1C301.8,435.8,298.2,432.1,293.7,432.1z M285.6,464.5h-32.4v16.2h32.4c4.5,0,8.1-3.6,8.1-8.1C293.7,468.2,290.1,464.5,285.6,464.5z M301.8,399.8h-48.6V416h48.6 c4.5,0,8.1-3.6,8.1-8.1C309.9,403.4,306.3,399.8,301.8,399.8z M253.2,27.4v356.2h49.3c9.4,0,17.3-6.6,19.2-16.1 c1.2-5.7,2.1-10.6,2.9-15c4.6-24.7,33.4-78.3,34.7-79.7c25.5-27,39.6-62.4,39.6-99.7C399,92.7,333.6,27.4,253.2,27.4z"></path> <path fill="#FF5F82" d="M507.7,254.2c0-4.5-3.6-8.2-8.1-8.2v0c-1.9,0-19.2,0-19.2,0c-3.2,0.1-6.4,2-7.7,5.1l-7.2,18.1l-17.9-65.8 c-0.9-3.2-3.7-5.6-7-5.9c-3.4-0.4-6.5,1.4-8,4.4l-22.1,44.1H398c16.1-31.7,21.6-68.5,14.1-105.5C397.4,67.3,332.6,13.2,258,11.1 C166.6,8.6,91.5,82.2,91.5,173c0,25.7,6.1,50.5,17.4,72.9l-1.1,0c-3.3,0.1-6.4,2-7.7,5.1L93,269L75,203.3c-0.9-3.2-3.7-5.6-7-5.9 c-3.4-0.4-6.5,1.4-8,4.4l-22.1,44.1H10.5v0c-4.5,0-8.1,3.6-8.1,8.1c0,4.5,3.6,8.1,8.1,8.1c0.1,0,0.2,0,0.2,0h32.1 c3.1,0,5.9-1.7,7.2-4.5L65,228l18.7,68.6c0.9,3.4,3.9,5.8,7.4,6c0.2,0,0.3,0,0.5,0c3.3,0,6.3-2,7.5-5.1l14.1-35.3l5.4,0.1 c4.2,6.2,8.6,12.3,13.7,18c0.2,0.9,0.6,1.7,1.1,2.5c26.6,39.9,28.1,48.1,32.7,72.6c0.9,4.5,1.8,9.5,3,15.3 c2.1,10,7.9,18.2,15.9,23.3c-2.7,3.9-4.4,8.7-4.4,13.8c0,8.6,4.6,16.2,11.3,20.5c-2,3.5-3.3,7.6-3.3,11.9c0,8.6,4.6,16.2,11.3,20.5 c-3.7,6.4-4.8,14.5-0.5,23.1c4.1,8.3,13.1,13.1,22.3,13.1h63.2c9.3,0,18.2-4.8,22.3-13.1c4.3-8.7,3.1-16.7-0.5-23.1 c6.8-4.3,11.3-11.9,11.3-20.5c0-4.3-1.2-8.4-3.3-11.9c6.8-4.3,11.3-11.9,11.3-20.5c0-5.1-1.6-9.9-4.4-13.8 c7.9-5.1,13.8-13.3,15.9-23.3c1.2-5.8,2.1-10.8,3-15.3c4.6-24.5,6.2-32.8,32.7-72.6c0.5-0.8,0.9-1.6,1.1-2.5 c5.1-5.7,9.6-11.9,13.8-18.2h26.9c3.1,0,5.9-1.7,7.2-4.5l14.8-29.6l18.7,68.6c0.9,3.4,3.9,5.8,7.4,6c0.1,0,0.3,0,0.5,0 c3.3,0,6.3-2,7.5-5.1l14.1-35.1h13.9v0C504,262.3,507.7,258.7,507.7,254.2z M285.9,480.7h-64.8c-4.5,0-8.1-3.6-8.1-8.1 c0-4.5,3.6-8.1,8.1-8.1h64.8c4.5,0,8.1,3.6,8.1,8.1C294,477.1,290.3,480.7,285.9,480.7z M294,448.3h-8.1h-64.8H213 c-4.5,0-8.1-3.6-8.1-8.1c0-4.5,3.6-8.1,8.1-8.1h81c4.5,0,8.1,3.6,8.1,8.1C302,444.7,298.4,448.3,294,448.3z M302,416H294h-81h-8.1 c-4.5,0-8.1-3.6-8.1-8.1c0-4.5,3.6-8.1,8.1-8.1H302c4.5,0,8.1,3.6,8.1,8.1C310.1,412.3,306.5,416,302,416z M359.6,272.7 c-1.3,1.4-30.1,55-34.7,79.7c-0.8,4.4-1.8,9.3-2.9,15c-1.9,9.5-9.8,16.1-19.2,16.1H302h-9h-5.5l21.4-121.5h9.4 c13.4,0,24.3-10.9,24.3-24.3v-32.4h24.3c4.5,0,8.1-3.6,8.1-8.1v-40.5c0-13.4-10.9-24.3-24.3-24.3v-24.3c0-13.4-10.9-24.3-24.3-24.3 h-8.1c0-13.4-10.9-24.3-24.3-24.3h-24.3c-4.5,0-8.1,3.6-8.1,8.1V254c0,4.5,3.6,8.1,8.1,8.1h22.7L271,383.6H271H236l-21.4-121.5 h22.7c4.5,0,8.1-3.6,8.1-8.1V67.8c0-4.5-3.6-8.1-8.1-8.1h-24.3c-13.4,0-24.3,10.9-24.3,24.3h-8.1c-13.4,0-24.3,10.9-24.3,24.3v24.3 c-13.4,0-24.3,10.9-24.3,24.3v56.7c0,4.5,3.6,8.1,8.1,8.1h24.3v16.2c0,13.4,10.9,24.3,24.3,24.3h9.4l21.4,121.5h-0.1h-8.2h-6.5 h-0.7c-9.4,0-17.3-6.6-19.2-16.1c-1.2-5.7-2.1-10.6-2.9-15c-4.6-24.7-33.4-78.3-34.7-79.7c-31.8-33.7-45.8-80.5-37-127.6 c11.9-63.2,65.9-111.6,129.9-117.3c86.3-7.6,159,60.4,159,145.2C399.2,210.3,385.2,245.7,359.6,272.7z M310.2,148.7v-24.3 c0-4.5-3.6-8.1-8.1-8.1h-24.3V75.9H294c4.5,0,8.1,3.6,8.1,8.1V92c0,4.5,3.6,8.1,8.1,8.1h16.2c4.5,0,8.1,3.6,8.1,8.1v32.4 c0,4.5,3.6,8.1,8.1,8.1h8.1c4.5,0,8.1,3.6,8.1,8.1v32.4h-24.3h-32.4c-4.5,0-8.1,3.6-8.1,8.1v16.2h16.2v-8.1h16.2v32.4 c0,4.5-3.6,8.1-8.1,8.1h-40.5V132.5H294v16.2H310.2z M172.6,173c-4.5,0-8.1,3.6-8.1,8.1v24.3h-16.2v-48.6c0-4.5,3.6-8.1,8.1-8.1 h8.1c4.5,0,8.1-3.6,8.1-8.1v-32.4c0-4.5,3.6-8.1,8.1-8.1h8.1v16.2H205V92V84c0-4.5,3.6-8.1,8.1-8.1h16.2v170h-40.5 c-4.5,0-8.1-3.6-8.1-8.1v-24.3v-24.3h16.2V173H172.6z"></path> </g> </svg> 