<svg xmlns="http://www.w3.org/2000/svg" xmlns:xlink="http://www.w3.org/1999/xlink" version="1.1" x="0px" y="0px" viewBox="0 0 32 40" enable-background="new 0 0 32 32" xml:space="preserve"><g display="none"><g display="inline"><path fill="#000000" d="M26.082,32H5.917c-1.1,0-2-0.9-2-2V2c0-1.1,0.9-2,2-2h20.165c1.1,0,2,0.9,2,2v28    C28.082,31.1,27.182,32,26.082,32z"/><g><g><defs><polygon id="d" points="21.394,0 28.082,6.689 28.082,32 3.918,32 3.918,0      "/></defs><clipPath id="c"><use xlink:href="#d" overflow="visible"/></clipPath><g clip-path="url(#c)"><rect x="3.493" y="17.745" fill="#000000" width="25.02" height="9.338"/><g><rect x="3.487" y="17.432" fill="#000000" width="25.026" height="0.5"/></g><g><rect x="3.487" y="26.833" fill="#000000" width="25.026" height="0.5"/></g></g></g></g><g><defs><path id="b" d="M26.082,32H5.917c-1.1,0-2-0.9-2-2V2c0-1.1,0.9-2,2-2h20.165c1.1,0,2,0.9,2,2v28      C28.082,31.1,27.182,32,26.082,32z"/></defs><clipPath id="a"><use xlink:href="#b" overflow="visible"/></clipPath><polyline clip-path="url(#a)" fill="#000000" points="21.344,-0.234 28.406,-0.234 28.406,6.828    "/></g><polygon fill="#000000" points="21.021,0 28.083,7.061 28.083,6.354 21.729,0   "/></g><g display="inline"><path fill="#000000" d="M10.771,19.914v4.922H9.837v-2.128H7.529v2.128H6.595v-4.922h0.934v2.008h2.308v-2.008H10.771z"/><path fill="#000000" d="M13.599,20.75v4.086h-0.934V20.75h-1.421v-0.836h3.826v0.836H13.599z"/><path fill="#000000" d="M21.297,19.914v4.922h-0.934v-2.683c0-0.214,0.006-0.457,0.018-0.729l0.018-0.368l0.02-0.364h-0.029    l-0.111,0.343l-0.109,0.343c-0.102,0.308-0.18,0.535-0.234,0.682l-1.082,2.776h-0.85l-1.094-2.755    c-0.06-0.151-0.139-0.379-0.238-0.682l-0.112-0.343l-0.112-0.339h-0.029l0.018,0.357l0.018,0.36    c0.014,0.278,0.021,0.518,0.021,0.718v2.683h-0.934v-4.922h1.522l0.88,2.278c0.061,0.159,0.139,0.386,0.238,0.682l0.107,0.343    l0.111,0.339h0.033l0.105-0.339l0.107-0.339c0.09-0.286,0.166-0.512,0.23-0.678l0.865-2.286H21.297z"/><path fill="#000000" d="M23.097,19.914v4.085h2.308v0.837h-3.242v-4.922H23.097z"/></g></g><g display="none"><rect x="-3.167" y="-82.505" display="inline" fill="#000000" width="400.796" height="199.346"/></g><g display="none"><g display="inline"><path d="M10.771,19.914v4.922H9.837v-2.128H7.529v2.128H6.595v-4.922h0.934v2.008h2.308v-2.008H10.771z"/><path d="M13.599,20.75v4.086h-0.934V20.75h-1.421v-0.836h3.826v0.836H13.599z"/><path d="M21.297,19.914v4.922h-0.934v-2.683c0-0.214,0.006-0.457,0.018-0.729l0.018-0.368l0.02-0.364h-0.029l-0.111,0.343    l-0.109,0.343c-0.102,0.308-0.18,0.535-0.234,0.682l-1.082,2.776h-0.85l-1.094-2.755c-0.06-0.151-0.139-0.379-0.238-0.682    l-0.112-0.343l-0.112-0.339h-0.029l0.018,0.357l0.018,0.36c0.014,0.278,0.021,0.518,0.021,0.718v2.683h-0.934v-4.922h1.522    l0.88,2.278c0.061,0.159,0.139,0.386,0.238,0.682l0.107,0.343l0.111,0.339h0.033l0.105-0.339l0.107-0.339    c0.09-0.286,0.166-0.512,0.23-0.678l0.865-2.286H21.297z"/><path d="M23.097,19.914v4.085h2.308v0.837h-3.242v-4.922H23.097z"/></g><g display="inline"><g><path d="M26.083,1c0.551,0,1,0.449,1,1v28c0,0.551-0.449,1-1,1H5.918c-0.551,0-1-0.449-1-1V2c0-0.551,0.449-1,1-1H26.083      M26.083,0H5.918c-1.1,0-2,0.9-2,2v28c0,1.1,0.9,2,2,2h20.165c1.1,0,2-0.9,2-2V2C28.083,0.9,27.183,0,26.083,0L26.083,0z"/></g><rect x="4.218" y="16.932" width="23.334" height="1"/><g><rect x="4.218" y="26.833" width="23.334" height="1"/></g><line fill="none" stroke="#000000" stroke-miterlimit="10" x1="21.304" y1="0.42" x2="27.588" y2="6.704"/></g></g><g><g><path d="M10.771,19.914v4.922H9.837v-2.128H7.529v2.128H6.595v-4.922h0.934v2.008h2.308v-2.008H10.771z"/><path d="M13.599,20.75v4.086h-0.934V20.75h-1.421v-0.836h3.826v0.836H13.599z"/><path d="M21.297,19.914v4.922h-0.934v-2.683c0-0.214,0.006-0.457,0.018-0.729l0.018-0.368l0.02-0.364h-0.029l-0.111,0.343    l-0.109,0.343c-0.102,0.308-0.18,0.535-0.234,0.682l-1.082,2.776h-0.85l-1.094-2.755c-0.06-0.151-0.139-0.379-0.238-0.682    l-0.112-0.343l-0.112-0.339h-0.029l0.018,0.357l0.018,0.36c0.014,0.278,0.021,0.518,0.021,0.718v2.683h-0.934v-4.922h1.522    l0.88,2.278c0.061,0.159,0.139,0.386,0.238,0.682l0.107,0.343l0.111,0.339h0.033l0.105-0.339l0.107-0.339    c0.09-0.286,0.166-0.512,0.23-0.678l0.865-2.286H21.297z"/><path d="M23.097,19.914v4.085h2.308v0.837h-3.242v-4.922H23.097z"/></g><path d="M5.916,32h20.165c1.1,0,2-0.9,2-2V6.85l0.003-0.003l-0.003-0.003V2c0-1.1-0.9-2-2-2H5.916c-1.1,0-2,0.9-2,2v28   C3.916,31.1,4.816,32,5.916,32z M27.581,17.182v10.4H4.416v-10.4H27.581z M27.581,2v4.344L21.737,0.5h4.344   C26.908,0.5,27.581,1.173,27.581,2z M5.916,0.5H21.03l6.551,6.551v9.631H4.416V2C4.416,1.173,5.089,0.5,5.916,0.5z M4.416,28.083   h23.165V30c0,0.827-0.673,1.5-1.5,1.5H5.916c-0.827,0-1.5-0.673-1.5-1.5V28.083z"/></g><g display="none"><g display="inline"><polygon points="20.539,2.195 6.118,2.195 6.118,15.73 25.883,15.73 25.883,7.534   "/><path fill="#000000" d="M27.442,6.415l-5.921-5.921h4.345c0,0,1.722,0.12,1.69,1.859C27.524,4.091,27.442,6.415,27.442,6.415z"/><g><path d="M26.082,1c0.551,0,1,0.449,1,1v28c0,0.551-0.449,1-1,1H5.917c-0.551,0-1-0.449-1-1V2c0-0.551,0.449-1,1-1H26.082      M26.082,0H5.917c-1.1,0-2,0.9-2,2v28c0,1.1,0.9,2,2,2h20.165c1.1,0,2-0.9,2-2V2C28.082,0.9,27.182,0,26.082,0L26.082,0z"/></g><rect x="4.667" y="17.667" fill="#000000" stroke="#000000" stroke-miterlimit="10" width="22.75" height="9.667"/><rect x="4.218" y="16.932" width="23.334" height="1"/><g><rect x="4.218" y="26.833" width="23.334" height="1"/></g><line fill="none" stroke="#000000" stroke-miterlimit="10" x1="21.304" y1="0.42" x2="27.588" y2="6.704"/><rect x="6.118" y="27.625" width="19.765" height="2.171"/></g><g display="inline"><path d="M10.771,19.914v4.922H9.837v-2.128H7.529v2.128H6.595v-4.922h0.934v2.008h2.308v-2.008H10.771z"/><path d="M13.599,20.75v4.086h-0.934V20.75h-1.421v-0.836h3.826v0.836H13.599z"/><path d="M21.297,19.914v4.922h-0.934v-2.683c0-0.214,0.006-0.457,0.018-0.729l0.018-0.368l0.02-0.364h-0.029l-0.111,0.343    l-0.109,0.343c-0.102,0.308-0.18,0.535-0.234,0.682l-1.082,2.776h-0.85l-1.094-2.755c-0.06-0.151-0.139-0.379-0.238-0.682    l-0.112-0.343l-0.112-0.339h-0.029l0.018,0.357l0.018,0.36c0.014,0.278,0.021,0.518,0.021,0.718v2.683h-0.934v-4.922h1.522    l0.88,2.278c0.061,0.159,0.139,0.386,0.238,0.682l0.107,0.343l0.111,0.339h0.033l0.105-0.339l0.107-0.339    c0.09-0.286,0.166-0.512,0.23-0.678l0.865-2.286H21.297z"/><path d="M23.097,19.914v4.085h2.308v0.837h-3.242v-4.922H23.097z"/></g></g><g display="none"><g display="inline"><path fill="#000000" d="M25.308,31.781H6.692c-1.085,0-1.973-0.888-1.973-1.973V2.191c0-1.085,0.888-1.973,1.973-1.973h18.617    c1.085,0,1.973,0.888,1.973,1.973v27.617C27.281,30.894,26.393,31.781,25.308,31.781z"/><g><g><path fill="#000000" d="M27.442,6.415l-5.921-5.921h4.345c0,0,1.722,0.12,1.69,1.859C27.524,4.091,27.442,6.415,27.442,6.415z"/></g><g><path d="M26.083,1c0.551,0,1,0.449,1,1v28c0,0.551-0.449,1-1,1H5.917c-0.551,0-1-0.449-1-1V2c0-0.551,0.449-1,1-1H26.083       M26.083,0H5.917c-1.1,0-2,0.9-2,2v28c0,1.1,0.9,2,2,2h20.165c1.1,0,2-0.9,2-2V2C28.083,0.9,27.182,0,26.083,0L26.083,0z"/></g><g><rect x="4.667" y="17.667" fill="#000000" width="22.75" height="9.667"/><path d="M27.917,27.833H4.167V17.167h23.75V27.833z M5.167,26.833h21.75v-8.666H5.167V26.833z"/></g><g><rect x="4.218" y="16.932" width="23.334" height="1"/></g><g><g><rect x="4.218" y="26.833" width="23.334" height="1"/></g></g><g><rect x="23.947" y="-0.882" transform="matrix(0.7071 -0.7071 0.7071 0.7071 4.6416 18.3298)" width="1" height="8.887"/></g></g></g><g display="inline"><path fill="#000000" d="M10.771,19.914v4.922H9.837v-2.128H7.529v2.128H6.595v-4.922h0.934v2.008h2.308v-2.008H10.771z"/><path fill="#000000" d="M13.599,20.75v4.086h-0.934V20.75h-1.421v-0.836h3.826v0.836H13.599z"/><path fill="#000000" d="M21.297,19.914v4.922h-0.934v-2.683c0-0.214,0.006-0.457,0.018-0.729l0.018-0.368l0.02-0.364h-0.029    l-0.111,0.343l-0.109,0.343c-0.102,0.308-0.18,0.535-0.234,0.682l-1.082,2.776h-0.85l-1.094-2.755    c-0.06-0.151-0.139-0.379-0.238-0.682l-0.112-0.343l-0.112-0.339h-0.029l0.018,0.357l0.018,0.36    c0.014,0.278,0.021,0.518,0.021,0.718v2.683h-0.934v-4.922h1.522l0.88,2.278c0.061,0.159,0.139,0.386,0.238,0.682l0.107,0.343    l0.111,0.339h0.033l0.105-0.339l0.107-0.339c0.09-0.286,0.166-0.512,0.23-0.678l0.865-2.286H21.297z"/><path fill="#000000" d="M23.097,19.914v4.085h2.308v0.837h-3.242v-4.922H23.097z"/></g></g><g display="none"><path display="inline" d="M28.083,2c0-1.1-0.9-2-2-2h-5.081l7.081,7.081V2z"/><path display="inline" d="M28.083,16.932V8.495l-8.358-8.358L19.587,0H5.917c-1.1,0-2,0.9-2,2v14.932H28.083z"/><path display="inline" d="M3.917,27.833V30c0,1.1,0.9,2,2,2h20.165c1.1,0,2-0.9,2-2v-2.167H3.917z"/><path display="inline" d="M3.917,17.932v8.901h24.165v-8.901H3.917z M10.771,24.836H9.837v-2.128H7.529v2.128H6.595v-4.922h0.934   v2.008h2.308v-2.008h0.934V24.836z M15.07,20.75h-1.471v4.086h-0.934V20.75h-1.421v-0.836h3.826V20.75z M21.297,24.836h-0.934   v-2.683c0-0.214,0.006-0.457,0.018-0.729l0.018-0.368l0.02-0.364h-0.029l-0.111,0.343l-0.109,0.343   c-0.102,0.308-0.18,0.535-0.234,0.682l-1.082,2.776h-0.85l-1.094-2.755c-0.06-0.151-0.139-0.379-0.238-0.682l-0.112-0.343   l-0.112-0.339h-0.029l0.018,0.357l0.018,0.36c0.014,0.278,0.021,0.518,0.021,0.718v2.683h-0.934v-4.922h1.522l0.88,2.278   c0.061,0.159,0.139,0.386,0.238,0.682l0.107,0.343l0.111,0.339h0.033l0.105-0.339l0.107-0.339c0.09-0.286,0.166-0.512,0.23-0.678   l0.865-2.286h1.555V24.836z M25.405,24.836h-3.242v-4.922h0.935v4.085h2.308V24.836z"/></g><text x="0" y="47" fill="#000000" font-size="5px" font-weight="bold" font-family="'Helvetica Neue', Helvetica, Arial-Unicode, Arial, Sans-serif">Created by Alfredo @ IconsAlfredo.com</text><text x="0" y="52" fill="#000000" font-size="5px" font-weight="bold" font-family="'Helvetica Neue', Helvetica, Arial-Unicode, Arial, Sans-serif">from the Noun Project</text></svg>