<svg xmlns="http://www.w3.org/2000/svg" width="704.86" height="800" viewBox="0 0 704.86 800"><g transform="translate(-449 -1142)" opacity="0.08"><path d="M456,800h0L0,714.7c.036-.3.316-2.467.824-6.4l.031-.238,1.182-9.151C39.2,411.648,59.557,254.886,60.924,245.576c2.8-21.024,3.286-21.558,25.776-28.585,1.759-.757,10.976-3.586,24.929-7.868l.615-.189c11.861-3.641,28.1-8.628,46.629-14.442,4.989-21.171,19.978-75.432,51.26-121.851,14.87-22.064,31.483-39.385,49.379-51.48C280.294,7.12,303.041,0,327.121,0a44.658,44.658,0,0,1,20.971,5.741,64.858,64.858,0,0,1,20.271,17.694h4.218a68.672,68.672,0,0,1,29.85,6.584,77.473,77.473,0,0,1,23.346,17.61c12.107,13.1,22.434,31.763,30.694,55.474,15.426-4.975,23.47-7.5,23.9-7.5a31.644,31.644,0,0,1,7.457-.953,20.883,20.883,0,0,1,3.75.317L457.423,799.693,456,800ZM129.819,560.983l-21.09,69.359c.4.495,10.125,12.364,29.525,24.371,17.959,11.118,47.9,24.371,88.576,24.371,66.775,0,113.411-51.649,113.411-125.6,0-58.728-39.185-87.514-70.671-110.644l-.047-.035c-9.979-7.33-19.4-14.254-26.134-21.232-7.462-7.732-10.937-14.81-10.937-22.275a35.955,35.955,0,0,1,7.2-21.794c8.306-10.728,22.912-16.167,43.411-16.167,16.71,0,32,3.95,41.888,7.263a125.77,125.77,0,0,1,17.631,7.263l29.994-90.449c-.819-.474-20.556-11.73-58.667-11.73-.747,0-1.5,0-2.257.013-111.092,0-161.69,76.04-161.69,146.691,0,50.076,27.761,72.645,52.255,92.558,19.239,15.636,35.853,29.14,35.853,52.724a32.266,32.266,0,0,1-7.559,20.385c-4.112,4.812-11.749,10.549-24.776,10.549-17.924,0-37.61-9.686-50.969-17.812A203.568,203.568,0,0,1,129.819,560.983ZM324.78,27.184c-32.732,0-62.336,18.921-87.99,56.238-24.5,35.638-38.78,78.721-45.111,101.23,10.9-3.547,21.732-6.858,33.2-10.363l.045-.013c9.135-2.787,19.49-5.946,30.019-9.309,6.719-36.395,18.31-66.769,34.448-90.276,13.569-19.761,29.889-34.168,48.506-42.82A22.228,22.228,0,0,0,324.78,27.184Zm29.994,29.053c-14.78,6.538-51.125,29.261-69.364,98.889,16.3-5.251,32.325-10.186,47.822-14.96l.689-.212.1-.029.122-.038,1.049-.323.033-.01c10.336-3.185,20.1-6.194,29.861-9.267V125.6C365.082,97.469,361.614,74.131,354.773,56.238Zm28.589-5.154h0c6.219,16.754,9.372,37.726,9.372,62.332v8.436c15.169-5.233,29.272-9.515,38.429-12.186-12.144-37.014-27.779-56.178-47.8-58.583Z" transform="translate(449 1142)" fill="#fff"/><path d="M249.914,74.464c-2.812,0-64.206-4.687-64.206-4.687S143.06,27.13,137.9,22.912a9.074,9.074,0,0,0-6.093-2.812L97.6,725.9l247.451-53.427s-86.7-586.759-87.17-590.977A12.676,12.676,0,0,0,249.914,74.464Z" transform="translate(808.809 1216.1)" fill="#555"/></g></svg>