<svg xmlns="http://www.w3.org/2000/svg" width="693.333" height="800" viewBox="0 0 693.333 800"><path d="M6,2,59.333,722l293.333,80L646,722,699.333,2ZM539.333,215.333H194l9.333,133.333H524.667a26.667,26.667,0,0,1,26.667,28l-12,186.667a26.667,26.667,0,0,1-18.667,24l-160,53.333h-16l-156-53.333a26.667,26.667,0,0,1-17.333-22.667l-8-77.333A26.8,26.8,0,1,1,216.667,482L222,542l130.667,45.333L487.333,542l9.333-140H179.333a26.667,26.667,0,0,1-26.667-25.333L139.333,190A26.667,26.667,0,0,1,166,162H539.333a26.667,26.667,0,0,1,0,53.333Z" transform="translate(-6 -2)" fill="#fff" opacity="0.08"/></svg>