<svg xmlns="http://www.w3.org/2000/svg" width="800" height="476.205" viewBox="0 0 800 476.205"><g transform="translate(-0.001 0.001)" opacity="0.077"><path d="M523.961,476.2h0L383,397.711H74.575a74.239,74.239,0,0,1-41.7-12.728,74.722,74.722,0,0,1-27.01-32.8A74.175,74.175,0,0,1,0,323.14V74.572A72.966,72.966,0,0,1,5.656,45.706a74.092,74.092,0,0,1,6.8-12.65A74.7,74.7,0,0,1,45.181,5.917,73.676,73.676,0,0,1,74.246,0H725.43a74.25,74.25,0,0,1,41.7,12.728,74.723,74.723,0,0,1,27.01,32.806A74.173,74.173,0,0,1,800,74.572V323.14a74.249,74.249,0,0,1-12.728,41.7,74.723,74.723,0,0,1-32.8,27.01,74.17,74.17,0,0,1-29.038,5.857H491.908L523.961,476.2h0ZM212.711,208.78c17.433,61.021,41.613,107.632,71.868,138.538a44.646,44.646,0,0,0,11.925,9.109,26.591,26.591,0,0,0,11.954,2.992c.595,0,1.2-.023,1.811-.069,7.557-.657,13.356-4.6,17.236-11.707a34.8,34.8,0,0,0,3.414-10,44.452,44.452,0,0,0,.488-11.463c-1.974-29.95,1.089-71.637,9.106-123.9,2.111-13.645,4.37-26.463,6.712-38.1,2.359-11.722,4.874-22.591,7.474-32.307,2.618-9.782,5.4-18.683,8.267-26.454a159.315,159.315,0,0,1,9.091-20.538,27.359,27.359,0,0,0,2.723-7.438,31.4,31.4,0,0,0,.528-8.171,26.194,26.194,0,0,0-2.967-10.243,26.868,26.868,0,0,0-7.114-8.294,31.812,31.812,0,0,0-8.617-4.93,26.948,26.948,0,0,0-9.387-1.681c-.819,0-1.655.036-2.484.108-9.641.665-16.661,5.346-21.463,14.309a222.588,222.588,0,0,0-14.025,31.834,393.526,393.526,0,0,0-11.83,40.4c-3.562,14.834-6.8,31.32-9.634,49s-5.336,37.077-7.439,57.626a517.731,517.731,0,0,1-17.032-51.1c-5.2-18.64-9.867-38.868-13.862-60.121a58.807,58.807,0,0,0-3.44-11.982,30.537,30.537,0,0,0-5.234-8.557,20.12,20.12,0,0,0-7.053-5.136,22.413,22.413,0,0,0-8.9-1.712c-.664,0-1.351.024-2.041.071a22.977,22.977,0,0,0-7.012,1.585,25.374,25.374,0,0,0-6.4,3.78,35.474,35.474,0,0,0-5.793,5.975,55.659,55.659,0,0,0-5.183,8.17L127.18,253.986C115.257,205.967,104.206,147.868,94.333,81.3A38.278,38.278,0,0,0,91.592,71a22.624,22.624,0,0,0-5.055-7.36,20.2,20.2,0,0,0-7.368-4.417,29.707,29.707,0,0,0-9.68-1.472c-1.113,0-2.273.048-3.449.14a32.5,32.5,0,0,0-11.95,2.967,22.941,22.941,0,0,0-8.538,7.112h.005c-4.673,6.008-6.473,13.541-5.2,21.789C45.127,120.1,49.887,148.369,54.5,173.78s9.209,48.675,13.659,69.145,8.882,38.732,13.171,54.268,8.556,28.789,12.683,39.392a77.363,77.363,0,0,0,4.856,9.834,38.871,38.871,0,0,0,5.22,7.024,19.993,19.993,0,0,0,5.611,4.214,13.773,13.773,0,0,0,6.029,1.4c.346,0,.7-.013,1.047-.04a22.672,22.672,0,0,0,10.737-4.085,60.009,60.009,0,0,0,11.743-10.792,151.392,151.392,0,0,0,12.779-17.5c4.407-6.905,9.065-15.05,13.847-24.207,10.08-20.808,25.835-52.32,46.828-93.658h0ZM674.834,79.348a80.882,80.882,0,0,0-22.322,3.05,76.821,76.821,0,0,0-20.157,9.146,93.262,93.262,0,0,0-18.023,15.244,134.084,134.084,0,0,0-15.92,21.34,174.618,174.618,0,0,0-11.1,21.282,169.035,169.035,0,0,0-7.926,22.378,173.569,173.569,0,0,0-4.756,23.475,188.577,188.577,0,0,0-1.585,24.572,163.624,163.624,0,0,0,.976,18.109,135.326,135.326,0,0,0,2.927,16.768,116.274,116.274,0,0,0,4.878,15.427,105.315,105.315,0,0,0,6.829,14.086,84.241,84.241,0,0,0,9.822,13.852A72.616,72.616,0,0,0,610.4,308.943a73.352,73.352,0,0,0,14.059,7.937,90.264,90.264,0,0,0,33.785,7.022,81.972,81.972,0,0,0,22.5-3.049,76.628,76.628,0,0,0,20.218-9.146,91.761,91.761,0,0,0,17.962-15.244,131.082,131.082,0,0,0,15.737-21.342,179.671,179.671,0,0,0,11.1-21.468,171.584,171.584,0,0,0,7.927-22.475,174.535,174.535,0,0,0,4.756-23.51,188.685,188.685,0,0,0,1.585-24.578,151.162,151.162,0,0,0-.838-18.242,126.813,126.813,0,0,0-2.942-16.718,111.884,111.884,0,0,0-4.954-15.254,105.1,105.1,0,0,0-6.875-13.851,84.214,84.214,0,0,0-9.822-13.851,72.639,72.639,0,0,0-11.926-10.865,73.4,73.4,0,0,0-14.059-7.937A86.726,86.726,0,0,0,692.4,81.3,85.827,85.827,0,0,0,674.834,79.348Zm-203.578,0a80.881,80.881,0,0,0-22.322,3.05,76.813,76.813,0,0,0-20.157,9.146,93.232,93.232,0,0,0-18.023,15.244,134.082,134.082,0,0,0-15.92,21.34,174.666,174.666,0,0,0-11.1,21.282,168.933,168.933,0,0,0-7.927,22.378,173.564,173.564,0,0,0-4.756,23.475,188.512,188.512,0,0,0-1.585,24.572,163.641,163.641,0,0,0,.975,18.109,135.331,135.331,0,0,0,2.926,16.768,116.3,116.3,0,0,0,4.878,15.427,105.334,105.334,0,0,0,6.829,14.086,84.232,84.232,0,0,0,9.822,13.852,71.917,71.917,0,0,0,25.985,18.8A90.262,90.262,0,0,0,454.67,323.9a81.973,81.973,0,0,0,22.5-3.049,76.637,76.637,0,0,0,20.218-9.146,91.791,91.791,0,0,0,17.962-15.244,131.081,131.081,0,0,0,15.737-21.342,179.654,179.654,0,0,0,11.1-21.468,171.564,171.564,0,0,0,7.927-22.475,174.59,174.59,0,0,0,4.756-23.51,188.678,188.678,0,0,0,1.585-24.578,165.156,165.156,0,0,0-.975-18.242,132.91,132.91,0,0,0-2.927-16.718,112.5,112.5,0,0,0-4.878-15.254,101.932,101.932,0,0,0-6.829-13.851,82.883,82.883,0,0,0-9.868-13.851,73.3,73.3,0,0,0-12-10.865A74.588,74.588,0,0,0,504.9,86.371,86.8,86.8,0,0,0,488.818,81.3,85.825,85.825,0,0,0,471.256,79.348ZM656.273,268.026h0a19.851,19.851,0,0,1-3.879-.382,18.082,18.082,0,0,1-5.6-2.205,23,23,0,0,1-5.086-4.218c-3.237-3.524-6.1-8.475-8.5-14.715a89.873,89.873,0,0,1-4.39-15.041,75.681,75.681,0,0,1-1.463-14.553,112.782,112.782,0,0,1,2.276-23.739,104.757,104.757,0,0,1,6.423-19.716,108.018,108.018,0,0,1,10.814-18.985c4.621-6.861,9.453-12.078,14.363-15.507a29.822,29.822,0,0,1,7.409-3.83,23.367,23.367,0,0,1,7.534-1.267,23.729,23.729,0,0,1,4.513.441,18.09,18.09,0,0,1,5.6,2.2,23.042,23.042,0,0,1,5.087,4.218c3.237,3.524,6.1,8.475,8.5,14.716a89.838,89.838,0,0,1,4.391,15.041,75.644,75.644,0,0,1,1.463,14.553,112.974,112.974,0,0,1-2.276,24.064,132.84,132.84,0,0,1-4.092,15.065,97.2,97.2,0,0,1-5.462,13.022,75.041,75.041,0,0,1-6.865,11.012,63.232,63.232,0,0,1-8.3,9.031,50.946,50.946,0,0,1-11.578,8.068A25.129,25.129,0,0,1,656.273,268.026Zm-203.9,0h0a19.844,19.844,0,0,1-3.878-.382,18.1,18.1,0,0,1-5.605-2.205,23,23,0,0,1-5.086-4.218c-3.238-3.524-6.1-8.475-8.5-14.715a89.871,89.871,0,0,1-4.391-15.041,75.665,75.665,0,0,1-1.463-14.553,112.773,112.773,0,0,1,2.276-23.739,104.852,104.852,0,0,1,6.423-19.716,107.994,107.994,0,0,1,10.813-18.985c4.621-6.861,9.453-12.078,14.364-15.507a29.833,29.833,0,0,1,7.409-3.83,23.371,23.371,0,0,1,7.535-1.267,23.734,23.734,0,0,1,4.513.441,18.093,18.093,0,0,1,5.6,2.2,23.024,23.024,0,0,1,5.087,4.218c3.238,3.525,6.1,8.475,8.5,14.716a89.822,89.822,0,0,1,4.391,15.041,75.644,75.644,0,0,1,1.463,14.553,96.26,96.26,0,0,1-2.276,24.064,132.852,132.852,0,0,1-4.092,15.065A97.2,97.2,0,0,1,490,237.194a75.053,75.053,0,0,1-6.865,11.012,63.256,63.256,0,0,1-8.3,9.031,50.965,50.965,0,0,1-11.578,8.068A25.128,25.128,0,0,1,452.371,268.026Z" transform="translate(0.001 -0.001)"/></g></svg>