<svg xmlns="http://www.w3.org/2000/svg" width="898.329" height="800" viewBox="0 0 898.329 800"><g transform="translate(-175.7 -78)"><path d="M1074.029,478.092c0-59.51-74.525-115.908-188.784-150.881,26.368-116.457,14.649-209.11-36.988-238.773-11.9-6.958-25.818-10.254-41.016-10.254v40.833c8.423,0,15.2,1.648,20.874,4.761,24.9,14.282,35.706,68.666,27.283,138.613-2.014,17.212-5.31,35.34-9.339,53.834a887.377,887.377,0,0,0-116.274-19.959,893.209,893.209,0,0,0-76.173-91.554c59.693-55.482,115.724-85.878,153.811-85.878V78h0C757.069,78,691.15,113.889,624.5,176.146c-66.651-61.891-132.57-97.414-182.925-97.414v40.833c37.9,0,94.118,30.213,153.811,85.328a864.838,864.838,0,0,0-75.624,91.371A855.068,855.068,0,0,0,403.3,316.407c-4.211-18.311-7.324-36.072-9.522-53.1-8.606-69.947,2.014-124.331,26.734-138.8,5.493-3.3,12.634-4.761,21.057-4.761V78.916h0c-15.381,0-29.3,3.3-41.382,10.254C348.737,118.833,337.2,211.3,363.752,327.393,249.859,362.55,175.7,418.765,175.7,478.092c0,59.51,74.525,115.907,188.785,150.881-26.368,116.457-14.649,209.11,36.988,238.773,11.9,6.958,25.818,10.254,41.2,10.254,50.355,0,116.274-35.889,182.925-98.146,66.651,61.891,132.57,97.414,182.925,97.414,15.381,0,29.3-3.3,41.382-10.254,51.453-29.664,62.989-122.133,36.439-238.224C999.87,593.816,1074.029,537.419,1074.029,478.092ZM835.622,355.958c-6.775,23.621-15.2,47.974-24.72,72.328-7.507-14.649-15.381-29.3-23.987-43.946-8.423-14.649-17.4-28.931-26.368-42.847C786.549,345.338,811.635,350.1,835.622,355.958Zm-83.864,195.01c-14.282,24.72-28.931,48.157-44.129,69.947-27.283,2.38-54.932,3.662-82.765,3.662-27.649,0-55.3-1.282-82.4-3.479q-22.8-32.685-44.312-69.581-20.874-35.981-38.086-72.877c11.353-24.536,24.17-49.073,37.9-73.06,14.282-24.72,28.931-48.157,44.129-69.947,27.283-2.38,54.932-3.662,82.765-3.662,27.649,0,55.3,1.282,82.4,3.479q22.8,32.685,44.312,69.581,20.874,35.981,38.087,72.877C778.126,502.445,765.492,526.982,751.759,550.969Zm59.144-23.8c9.888,24.536,18.311,49.073,25.269,72.877-23.987,5.859-49.256,10.8-75.441,14.649,8.972-14.1,17.945-28.565,26.368-43.4C795.521,556.645,803.4,541.813,810.9,527.165ZM625.231,722.541a754.881,754.881,0,0,1-50.9-58.595c16.48.732,33.326,1.282,50.355,1.282,17.212,0,34.241-.366,50.9-1.282A714.722,714.722,0,0,1,625.231,722.541ZM489,614.69c-26-3.845-51.087-8.606-75.074-14.466,6.775-23.621,15.2-47.974,24.72-72.328,7.507,14.649,15.381,29.3,23.987,43.946S480.026,600.774,489,614.69ZM624.315,233.642a754.892,754.892,0,0,1,50.9,58.595c-16.48-.732-33.326-1.282-50.355-1.282-17.212,0-34.241.366-50.9,1.282A714.721,714.721,0,0,1,624.315,233.642Zm-135.5,107.851c-8.972,14.1-17.945,28.565-26.368,43.4-8.423,14.649-16.3,29.3-23.8,43.946-9.888-24.536-18.311-49.073-25.269-72.877C437.362,350.282,462.631,345.338,488.815,341.493ZM323.1,570.744c-64.82-27.649-106.752-63.9-106.752-92.653s41.932-65.187,106.752-92.653c15.747-6.775,32.96-12.818,50.721-18.494a879.443,879.443,0,0,0,41.2,111.513,867.038,867.038,0,0,0-40.65,110.964C356.245,583.745,339.033,577.519,323.1,570.744Zm98.512,261.662c-24.9-14.282-35.706-68.666-27.283-138.613,2.014-17.212,5.31-35.34,9.339-53.834a887.384,887.384,0,0,0,116.274,19.959,893.209,893.209,0,0,0,76.173,91.554c-59.693,55.482-115.724,85.878-153.811,85.878C434.066,837.167,427.108,835.519,421.614,832.406ZM855.947,692.878c8.606,69.947-2.014,124.331-26.734,138.8-5.493,3.3-12.635,4.761-21.057,4.761-37.9,0-94.118-30.213-153.811-85.328a864.854,864.854,0,0,0,75.624-91.371,855.07,855.07,0,0,0,116.457-20.142A512.629,512.629,0,0,1,855.947,692.878Zm70.5-122.133c-15.747,6.775-32.959,12.818-50.721,18.494a879.447,879.447,0,0,0-41.2-111.513,867.047,867.047,0,0,0,40.65-110.964c18.128,5.676,35.34,11.9,51.453,18.677,64.82,27.649,106.752,63.9,106.752,92.653C1033.2,506.84,991.264,543.278,926.444,570.744Z" transform="translate(0 0)" fill="rgba(23,23,23,0.04)"/><path d="M320.8,78.4Z" transform="translate(120.59)" fill="rgba(23,23,23,0.04)"/><circle cx="45.7" cy="45.7" r="45.7" transform="translate(578.962 432.403)" fill="rgba(23,23,23,0.04)"/><path d="M520.5,78.1Z" transform="translate(286.557)" fill="rgba(23,23,23,0.04)"/></g></svg>