<?xml version="1.0" encoding="UTF-8"?> <!-- Generator: Adobe Illustrator 18.0.0, SVG Export Plug-In . SVG Version: 6.00 Build 0) --> <svg xmlns="http://www.w3.org/2000/svg" xmlns:xlink="http://www.w3.org/1999/xlink" id="Capa_1" x="0px" y="0px" viewBox="0 0 1080 1080" xml:space="preserve"> <g> <path id="XMLID_2_" fill="#FF5F83" d="M29.2,303.1v42.1c0,13.7,11.1,24.9,24.9,24.9h38.6c6.1,30.6,18,59.2,34.9,84.4l-27.3,27.3 c-9.8,9.8-9.8,25.6,0,35.3l29.7,29.7c9.8,9.8,25.6,9.8,35.3,0l27.1-27.3c25.2,16.7,53.6,28.8,84.4,34.9v38.6 c0,13.7,11.1,24.9,24.9,24.9h42.1c13.7,0,24.9-11.1,24.9-24.9v-38.6c30.6-6.1,59.2-18,84.4-34.9l27.3,27.3c9.8,9.8,25.6,9.8,35.3,0 l29.9-29.7c9.8-9.8,9.8-25.6,0-35.3l-27.3-27.3c16.7-25.2,28.8-53.6,34.9-84.4H592c13.7,0,24.9-11.1,24.9-24.9v-41.9 c0-13.7-11.1-24.9-24.9-24.9h-38.6c-6.1-30.6-18-59.2-34.9-84.4l27.3-27.3c9.8-9.8,9.8-25.6,0-35.3l-29.7-29.7 c-9.8-9.8-25.6-9.8-35.3,0L453.4,129c-25.2-16.7-53.6-28.8-84.4-34.9V55.5c0-13.7-11.1-24.9-24.9-24.9H302 c-13.7,0-24.9,11.1-24.9,24.9v38.6c-30.6,6.1-59.2,18-84.4,34.9l-27.3-27.3c-9.8-9.8-25.6-9.8-35.3,0l-29.7,29.7 c-9.8,9.8-9.8,25.6,0,35.3l27.3,27.3c-16.7,25.2-28.8,53.6-34.9,84.4H54.2C40.3,278.4,29.2,289.5,29.2,303.1z M216.4,324.2 c0-58.8,47.7-106.5,106.5-106.5s106.5,47.7,106.5,106.5s-47.7,106.5-106.5,106.5S216.4,383,216.4,324.2z"></path> <path fill="#FFFFFF" d="M299.6,777.8c-1.5-3.7-1.5-7.6,0-11.3s4.3-6.5,8-8l49-20.4c10-4.1,14.7-15.6,10.6-25.6 c-4.1-10-15.6-14.7-25.6-10.6l-49,20.4c-13.4,5.6-23.9,16-29.3,29.3c-5.4,13.4-5.4,28.2,0,41.4l22.1,53.3 c11.3,27.5,42.9,40.8,70.5,29.3l34.5-14.3c20.4,27.5,44.5,51.6,71.8,71.8L448,967.6c-11.3,27.5,1.7,59,29.3,70.5l53.3,22.1 c6.7,2.8,13.7,4.1,20.6,4.1c21,0,41.2-12.6,49.9-33.4l14.3-34.5c33.8,5.2,67.7,5.2,101.5,0l14.3,34.5 c11.3,27.5,42.9,40.6,70.5,29.3L855,1038c13.4-5.6,23.9-16,29.3-29.3c5.4-13.4,5.4-28.2,0-41.4L870,932.9 c27.5-20.4,51.6-44.5,71.8-71.8l34.5,14.3c27.5,11.3,59.2-1.7,70.5-29.3l22.1-52.7c11.3-27.5-1.7-59-29.3-70.5l-34.5-14.3 c5.2-33.8,5.2-67.7,0-101.5l34.5-14.3c13.4-5.6,23.9-16,29.3-29.3c5.4-13.4,5.4-28.2,0-41.4l-22.1-53.3 c-5.6-13.4-16-23.9-29.3-29.3c-13.4-5.4-28.2-5.4-41.4,0l-34.5,14.3c-20.4-27.5-44.5-51.6-71.8-71.8l14.3-34.5 c5.4-13.4,5.4-28.2,0-41.4c-5.6-13.4-16-23.9-29.3-29.3l-53.3-22.1c-27.5-11.3-59,1.7-70.5,29.3l-20.4,49 c-4.1,10,0.7,21.5,10.6,25.6c10,4.1,21.5-0.7,25.6-10.6l20.4-49c3-7.6,11.7-11.1,19.1-8l53.3,22.1c3.7,1.5,6.5,4.3,8,8 c1.5,3.7,1.5,7.6,0,11.3l-20.4,49c-3.7,8.7-0.7,18.6,7.2,23.9c33.2,22.1,61.4,50.3,83.5,83.5c5.2,7.8,15.2,10.8,23.9,7.2l49-20.4 c3.7-1.5,7.6-1.5,11.3,0c3.7,1.5,6.5,4.3,8,8l22.1,53.3c1.5,3.7,1.5,7.6,0,11.3s-4.3,6.5-8,8l-49,20.4 c-8.7,3.5-13.4,12.8-11.7,21.9c7.8,39.2,7.8,78.9,0,118c-2,9.1,3,18.2,11.7,21.9l49,20.4c7.6,3,11.1,11.7,8,19.1l-22.1,53.3 c-3,7.6-11.5,11.1-19.1,8l-49-20.4c-8.7-3.7-18.6-0.7-23.9,7.2c-22.1,33.2-50.3,61.4-83.5,83.5c-7.8,5.2-10.8,15.2-7.2,23.9 l20.4,49c1.5,3.7,1.5,7.6,0,11.3s-4.3,6.5-8,8l-53.3,22.1c-7.4,3-16-0.7-19.1-8l-20.4-49c-3.5-8.7-12.8-13.4-21.9-11.7 c-39.2,7.8-78.9,7.8-118,0c-9.1-2-18.2,3-21.9,11.7l-20.4,49c-3,7.6-11.7,11.1-19.1,8l-53.3-22.3c-7.6-3-11.1-11.7-8-19.1l20.2-49 c3.7-8.7,0.7-18.6-7.2-23.9c-33.2-22.1-61.4-50.3-83.5-83.5c-5.2-7.8-15.2-10.8-23.9-7.2l-49,20.4c-7.4,3-16-0.4-19.1-8 L299.6,777.8z"></path> <path fill="#FFFFFF" d="M762.2,563.2c25.2,25.6,38.8,59.4,38.6,95.2s-14.3,69.4-39.9,94.5c-25.2,24.9-58.8,38.6-94.1,38.6 c-0.4,0-0.7,0-1.1,0c-35.8-0.2-69.4-14.3-94.5-39.9s-38.8-59.4-38.6-95.2c0-10.8-8.7-19.7-19.5-19.7c-0.2,0-0.2,0-0.2,0 c-10.8,0-19.7,8.7-19.7,19.5c-0.4,46.2,17.3,90,49.9,123c32.5,33,75.9,51.2,122.3,51.6c0.4,0,0.9,0,1.3,0 c45.8,0,88.9-17.6,121.7-49.9c33-32.5,51.2-75.9,51.6-122.3c0.4-46.2-17.3-90-49.9-123c-32.5-33-75.9-51.2-122.3-51.6 c-0.2,0-0.2,0-0.2,0c-10.8,0-19.7,8.7-19.7,19.5c0,10.8,8.7,19.7,19.5,19.7C703,523.5,736.6,537.8,762.2,563.2z"></path> <path fill="#FFFFFF" d="M591.7,258.7l-22.8,0c-5.6-21.7-14.3-42.3-25.6-61.8l16.3-16.3c17.3-17.3,17.3-45.8,0-63.1l-29.7-29.7 c-8.2-8.5-19.5-13-31.4-13c-11.7,0-23,4.6-31.4,13l-16.3,16.3c-19.3-11.3-40.1-19.7-61.8-25.6V55.3c0-24.7-20.2-44.7-44.7-44.7 h-42.1c-24.7,0-44.7,20.2-44.7,44.7v23c-21.7,5.6-42.3,14.3-61.8,25.6l-16.3-16.3c-8.2-8.5-19.5-13-31.4-13c-11.7,0-23,4.6-31.4,13 l-29.7,29.7c-17.3,17.3-17.3,45.8,0,63.1l16.3,16.3c-11.3,19.3-19.7,40.1-25.6,61.8h-23c-24.7,0-44.7,20.2-44.7,44.7v42.1 c0,24.7,20.2,44.7,44.7,44.7h23c5.6,21.7,14.3,42.3,25.6,61.8L86.9,468c-17.3,17.3-17.3,45.8,0,63.1l29.7,29.7 c8.2,8.5,19.5,13,31.4,13c11.7,0,23-4.6,31.4-13l16.3-16.3c19.3,11.3,40.1,19.7,61.8,25.6v23c0,24.7,20.2,44.7,44.7,44.7h42.1 c24.7,0,44.7-20.2,44.7-44.7v-23c21.7-5.6,42.3-14.3,61.8-25.6l16.3,16.3c8.2,8.5,19.5,13,31.4,13c11.7,0,23-4.6,31.4-13l29.7-29.7 c17.3-17.3,17.3-45.8,0-63.1l-16.3-16.3c11.3-19.3,19.7-40.1,25.6-61.8h22.8c24.7,0,44.7-20.2,44.7-44.7v-41.9 C636.4,278.6,616.2,258.7,591.7,258.7L591.7,258.7z M553.1,297.7h38.6c2.8,0,5.2,2.4,5.2,5.2V345c0,2.8-2.4,5.2-5.2,5.2h-38.6 c-9.3,0-17.6,6.7-19.3,15.8c-5.6,27.8-16.3,53.8-32.1,77.4c-5.2,7.6-4.3,18,2.4,24.7l27.3,27.3c2.2,2.2,2.2,5.4,0,7.6l-29.7,29.7 c-1.3,1.3-2.6,1.5-3.7,1.5c-0.9,0-2.4-0.2-3.7-1.5L467,505.5c-6.5-6.5-16.9-7.6-24.7-2.4c-23.6,15.8-49.7,26.7-77.4,32.1 c-9.1,2-15.8,10-15.8,19.3v38.6c0,2.8-2.4,5.2-5.2,5.2h-42.1c-2.8,0-5.2-2.4-5.2-5.2v-38.4c0-9.3-6.7-17.6-15.8-19.3 c-27.8-5.6-53.8-16.3-77.4-32.1c-7.6-5.2-18-4.3-24.7,2.4L151.3,533c-1.3,1.3-2.6,1.5-3.7,1.5c-0.9,0-2.4-0.2-3.7-1.5l-29.5-29.9 c-1.3-1.3-1.5-2.6-1.5-3.7c0-0.9,0.2-2.4,1.5-3.7l27.3-27.3c6.5-6.5,7.6-16.9,2.4-24.7c-15.8-23.6-26.7-49.7-32.1-77.4 c-2-9.1-10-15.8-19.3-15.8H54.2c-2.8,0-5.2-2.4-5.2-5.2v-42.3c0-2.8,2.4-5.2,5.2-5.2h38.6c9.3,0,17.6-6.7,19.3-15.8 c5.6-27.8,16.3-53.8,32.1-77.4c5.2-7.6,4.3-18-2.4-24.7l-27.3-27.3c-2.2-2.2-2.2-5.4,0-7.6l29.7-29.7c1.3-1.3,2.6-1.5,3.7-1.5 c0.9,0,2.4,0.2,3.7,1.5l27.3,27.3c3.7,3.9,8.9,5.9,13.9,5.9c3.7,0,7.6-1.1,10.8-3.3c23.6-15.8,49.7-26.7,77.4-32.1 c9.1-2,15.8-10,15.8-19.3V55.1c0-2.8,2.4-5.2,5.2-5.2h42.1c2.8,0,5.2,2.4,5.2,5.2v38.6c0,9.3,6.7,17.6,15.8,19.3 c27.8,5.6,53.8,16.3,77.4,32.1c7.6,5.2,18,4.3,24.7-2.4l27.3-27.3c1.3-1.3,2.6-1.5,3.7-1.5c0.9,0,2.4,0.2,3.7,1.5l29.7,29.7 c2.2,2.2,2.2,5.4,0,7.6L504.3,180c-6.5,6.5-7.6,16.9-2.4,24.7c15.8,23.6,26.7,49.7,32.1,77.4C535.8,291.4,543.8,297.9,553.1,297.7z "></path> <path fill="#FFFFFF" d="M449.1,324.4c0-69.4-56.4-126-126-126c-69.4,0-126,56.4-126,126c0,69.4,56.4,126,126,126 C392.5,450.4,449.1,393.8,449.1,324.4z M409.8,324.4c0,47.9-38.8,86.7-86.7,86.7s-86.7-38.8-86.7-86.7s38.8-86.7,86.7-86.7 C370.8,237.7,409.8,276.5,409.8,324.4z"></path> </g> </svg> 