<?xml version="1.0" encoding="UTF-8"?> <!-- Generator: Adobe Illustrator 18.0.0, SVG Export Plug-In . SVG Version: 6.00 Build 0) --> <svg xmlns="http://www.w3.org/2000/svg" xmlns:xlink="http://www.w3.org/1999/xlink" id="Capa_1" x="0px" y="0px" viewBox="0 0 1080 1080" xml:space="preserve"> <g> <g> <path fill="#FF5F83" d="M845,244.1L683.9,368.9V165.6C746.1,169.6,803.5,197.6,845,244.1z"></path> </g> <path fill="#FF5F83" d="M374.8,519.4c0-78.5,38.3-147.9,97.1-190.9c3.6-2.6,7.2-5.2,10.9-7.6c4.8-3.1,9.7-6.2,14.7-9 c1-0.5,1.9-1,2.9-1.5c28.9-15.4,61.4-24.8,95.9-27v235.5c0,3.4,1.1,6.6,3,9.2l0,0l138.3,191.4c-0.5,0.3-1,0.7-1.5,1 c-3.5,2.1-7.2,3.8-10.8,5.8c0.1,0.1,0.1,0.2,0.2,0.3c-33.8,18.7-72.5,29.6-113.9,29.6C480.8,756.3,374.8,650.2,374.8,519.4z"></path> <path fill="#FF5F83" d="M256.2,116.8c-5.2-12.4-23.2-12.9-28.9-0.6c-2.8,6.1-1.4,13.6,3.6,18.2c5.1,4.7,12.8,5.5,18.7,2 C256.3,132.6,259.2,124,256.2,116.8z"></path> <path fill="#FF5F83" d="M363.6,116.8c-5.4-12.6-23.8-12.8-29.2,0c-2.7,6.5-0.7,14.1,4.8,18.5c5.1,4,12.3,4.5,17.9,1.2 C363.8,132.5,366.6,123.9,363.6,116.8z"></path> <path fill="#FF5F83" d="M309.9,116.8c-2.4-5.8-8.1-9.7-14.4-9.7c-7-0.1-13.2,4.6-15.3,11.2c-1.9,6.1,0.3,13,5.3,17 c5.3,4.2,12.8,4.5,18.4,0.8C310.2,132,312.8,123.7,309.9,116.8z"></path> <path fill="#FFFFFF" d="M1004.3,772.1H836.8c-8.7,0-15.8,7.1-15.8,15.8c0,8.7,7.1,15.8,15.8,15.8h167.5c8.7,0,15.8-7.1,15.8-15.8 C1020.1,779.2,1013,772.1,1004.3,772.1z"></path> <path fill="#FFFFFF" d="M1004.3,705.2H887.4c-8.7,0-15.8,7.1-15.8,15.8c0,8.7,7.1,15.8,15.8,15.8h116.9c8.7,0,15.8-7.1,15.8-15.8 C1020.1,712.3,1013,705.2,1004.3,705.2z"></path> <g> <path fill="#FFFFFF" d="M668.2,133.4c-8.7,0-15.8,7.1-15.8,15.8V401c0,6,3.4,11.5,8.8,14.2c2.2,1.1,4.6,1.6,6.9,1.6 c3.4,0,6.9-1.1,9.7-3.3l199.5-154.6c3.3-2.6,5.5-6.4,6-10.5c0.5-4.2-0.6-8.4-3.2-11.7c-11.9-15.3-24.7-29.8-39.8-41.2 c-11.4-8.5-35-24.3-47.2-31.6C756.4,142,712.6,133.4,668.2,133.4z M845.2,244L684,368.8V165.5C746.3,169.5,803.7,197.5,845.2,244z "></path> </g> <path fill="#FFFFFF" d="M880.8,518.8c0-17-1.6-34.1-4.8-50.7c-1.6-8.6-9.9-14.2-18.5-12.5c-8.6,1.6-14.2,9.9-12.6,18.5 c2.8,14.6,4.2,29.7,4.2,44.7c0,73.2-33.4,138.8-85.7,182.3L634,521.9l174.6-135.8c9.1,13.5,16.8,27.8,23,42.9 c3.3,8.1,12.5,11.9,20.6,8.6c8.1-3.3,11.9-12.5,8.6-20.6c-9.3-22.5-21.6-43.8-36.6-63.1c-5.4-6.9-15.3-8.1-22.2-2.8L628.1,486.5 V266.1c0-8.7-7.1-15.8-15.8-15.8c-27.7,0-54.2,4.4-79.3,12.3c-0.7,0.2-1.3,0.4-2,0.6c-6.8,2.2-13.5,4.6-20.1,7.4 c-1.7,0.7-3.5,1.4-5.3,2.1c-4.8,2.1-9.4,4.4-14,6.8c-87.9,44.1-148.4,134.9-148.4,240c0,148.3,120.2,268.6,268.6,268.6 c58.7,0,112.9-19.1,157-51l-0.2-0.3C836.4,687.8,880.8,608.5,880.8,518.8z M375,519.3c0-78.5,38.3-147.9,97.1-190.9 c3.6-2.6,7.2-5.2,10.9-7.6c4.8-3.1,9.7-6.2,14.7-9c1-0.5,1.9-1,2.9-1.5c28.9-15.4,61.4-24.8,95.9-27v235.5c0,3.4,1.1,6.6,3,9.2l0,0 l138.3,191.4c-0.5,0.3-1,0.7-1.5,1c-3.5,2.1-7.2,3.8-10.8,5.8c0.1,0.1,0.1,0.2,0.2,0.3c-33.8,18.7-72.5,29.6-113.9,29.6 C481,756.2,375,650.1,375,519.3z"></path> <g> <rect x="401.8" y="848.5" fill="#FFFFFF" width="40.4" height="31.6"></rect> <path fill="#FFFFFF" d="M1003.2,41.7H223.6c-39.4,0-71.5,32.1-71.5,71.5v277.1c0,8.7,7.1,15.8,15.8,15.8c8.7,0,15.8-7.1,15.8-15.8 V195.5h468.8v-31.6H183.7v-50.7c0-22,17.9-39.9,39.9-39.9h779.7c22,0,39.9,17.9,39.9,39.9v50.7H793.2 c12.2,7.3,35.8,23.1,47.2,31.6h202.7v613.1c0,22-17.9,39.9-39.9,39.9H546.6v31.6h456.6c39.4,0,71.5-32.1,71.5-71.5V113.2 C1074.7,73.8,1042.6,41.7,1003.2,41.7z"></path> <rect x="257" y="848.5" fill="#FFFFFF" width="40.4" height="31.6"></rect> </g> <g> <path fill="#FFFFFF" d="M101.1,534.6H28.3c-8.7,0-15.8,7.1-15.8,15.8v472.1c0,8.7,7.1,15.8,15.8,15.8h72.8 c8.7,0,15.8-7.1,15.8-15.8V894.8c0-8.7-7.1-15.8-15.8-15.8s-15.8,7.1-15.8,15.8v111.9H44.1V566.2h41.2v275.9 c0,8.7,7.1,15.8,15.8,15.8s15.8-7.1,15.8-15.8V550.4C116.9,541.7,109.8,534.6,101.1,534.6z"></path> <path fill="#FFFFFF" d="M241.2,427.2h-72.8c-8.7,0-15.8,7.1-15.8,15.8v579.5c0,8.7,7.1,15.8,15.8,15.8h72.8 c8.7,0,15.8-7.1,15.8-15.8v-89.4v-38.3V443C257,434.3,249.9,427.2,241.2,427.2z M225.4,1006.7h-41.2V458.8h41.2V1006.7z"></path> <path fill="#FFFFFF" d="M386,732.7h-72.8c-8.7,0-15.8,7.1-15.8,15.8v273.9c0,8.7,7.1,15.8,15.8,15.8H386c8.7,0,15.8-7.1,15.8-15.8 v-89.4v-38.3V748.5C401.8,739.8,394.7,732.7,386,732.7z M370.2,1006.7H329V764.3h41.2V1006.7z"></path> <path fill="#FFFFFF" d="M530.8,607.7H458c-8.7,0-15.8,7.1-15.8,15.8v399c0,8.7,7.1,15.8,15.8,15.8h72.8c8.7,0,15.8-7.1,15.8-15.8 v-89.4v-38.3V623.5C546.6,614.8,539.5,607.7,530.8,607.7z M515,1006.7h-41.2V639.3H515V1006.7z"></path> </g> </g> </svg> 