<?xml version="1.0" encoding="UTF-8"?> <!-- Generator: Adobe Illustrator 18.0.0, SVG Export Plug-In . SVG Version: 6.00 Build 0) --> <svg xmlns="http://www.w3.org/2000/svg" xmlns:xlink="http://www.w3.org/1999/xlink" id="Capa_1" x="0px" y="0px" viewBox="0 0 512 512" xml:space="preserve"> <g> <g> <g> <path fill="#FF5F82" d="M414,85.7l-5.3-37.9c-0.3-1.9-1.3-3.6-2.8-4.8c-1.5-1.1-3.5-1.6-5.4-1.3l-41.7,6.4 c-3.9,0.6-6.6,4.3-6,8.2c0.6,3.9,4.3,6.6,8.2,6l24.3-3.7c-32.5,40.2-67.5,74.4-104.1,101.9c-31.9,23.9-65.1,42.7-98.6,55.9 c-57.2,22.5-96.2,21-96.6,21c-4-0.2-7.3,2.9-7.5,6.8c-0.2,4,2.9,7.3,6.8,7.5c0.2,0,1.2,0.1,2.9,0.1c10.4,0,47.3-1.6,98.7-21.7 c34.9-13.6,69.3-33.1,102.3-57.7c37.9-28.3,74.1-63.7,107.6-105.3l2.9,20.5c0.5,3.6,3.6,6.2,7.1,6.2c0.3,0,0.7,0,1-0.1 C411.8,93.3,414.6,89.7,414,85.7z"></path> </g> </g> <g> <g> <path fill="#FF5F82" d="M495.2,430h-58.2c4.8-3.2,9.3-6.9,13.5-11c16.4-16.4,25.4-38.2,25.4-61.4c0-23.2-9-45-25.4-61.4 c-5.8-5.8-12.3-10.6-19.2-14.5v-29.1c0-4-3.2-7.2-7.2-7.2c-4,0-7.2,3.2-7.2,7.2v22.7c-19.7-6.7-41.1-6-60.3,1.8v-88.4 c0-0.9,0.8-1.7,1.7-1.7h57c0.9,0,1.7,0.8,1.7,1.7v17.9c0,4,3.2,7.2,7.2,7.2c4,0,7.2-3.2,7.2-7.2v-17.9c0-8.9-7.2-16.1-16.1-16.1 h-57c-8.9,0-16.1,7.2-16.1,16.1v95.9c-5.1,3.3-9.9,7.1-14.4,11.6c-16.4,16.4-25.4,38.2-25.4,61.4c0,23.2,9,45,25.4,61.4 c4.2,4.2,8.7,7.8,13.5,11h-45.5V254c0-8.9-7.2-16.1-16.1-16.1h-57c-8.9,0-16.1,7.2-16.1,16.1v176h-46.4V313.2 c0-8.9-7.2-16.1-16.1-16.1h-57c-8.9,0-16.1,7.2-16.1,16.1V430H41.4V59.7c0-7.3-6-13.3-13.3-13.3H16.8c-7.3,0-13.3,6-13.3,13.3 v51.1c0,4,3.2,7.2,7.2,7.2s7.2-3.2,7.2-7.2v-50H27v370.2c0,7.3,6,13.3,13.3,13.3h453.8v10.8H17.9V156.3c0-4-3.2-7.2-7.2-7.2 s-7.2,3.2-7.2,7.2v300c0,7.3,6,13.3,13.3,13.3h478.5c7.3,0,13.3-6,13.3-13.3v-13.1C508.5,435.9,502.6,430,495.2,430z M145.8,430 L145.8,430H85.5V313.2c0-0.9,0.8-1.7,1.7-1.7h57c0.9,0,1.7,0.8,1.7,1.7L145.8,430z M221,430V254c0-0.9,0.8-1.7,1.7-1.7h57 c0.9,0,1.7,0.8,1.7,1.7v176L221,430L221,430z M420.9,422.6c-7.3,3.6-15.2,5.9-23.3,6.8c-0.1,0-0.3,0-0.4,0.1 c-0.6,0.1-1.1,0.1-1.7,0.2c-0.8,0.1-1.7,0.1-2.5,0.2c-0.3,0-0.5,0-0.8,0c-1,0-2.1,0.1-3.1,0.1c-1,0-2.1,0-3.1-0.1 c-0.3,0-0.7,0-1,0c-0.8,0-1.6-0.1-2.3-0.2c-0.6-0.1-1.3-0.1-1.9-0.2c-0.5-0.1-0.9-0.1-1.4-0.2c-0.7-0.1-1.3-0.2-2-0.3 c-0.1,0-0.2,0-0.3,0c-8.5-1.4-16.7-4.4-24.2-8.7c0,0-0.1,0-0.1-0.1c-5.4-3.1-10.4-7-14.9-11.5c-13.7-13.7-21.2-31.9-21.2-51.2 c0-19.3,7.5-37.5,21.2-51.2c5.2-5.2,11.1-9.5,17.3-12.8c0.2-0.1,0.4-0.2,0.5-0.3c10.4-5.4,21.9-8.1,33.3-8.1 c9.2,0,18.3,1.7,27,5.2c0.1,0.1,0.3,0.1,0.4,0.2c0.9,0.4,1.8,0.8,2.7,1.2c0.4,0.2,0.7,0.3,1.1,0.5c7.3,3.4,14.1,8.2,20.1,14.2 c28.2,28.2,28.2,74.2,0,102.4c-5.7,5.7-12.1,10.3-19.1,13.7C421.1,422.5,421,422.6,420.9,422.6z"></path> </g> </g> <g> <g> <path fill="#FF5F82" d="M392.5,350.6V325c8.8,0.6,12.1,4.7,15.2,4.7c3.8,0,5.6-4.8,5.6-7.2c0-6.2-12.1-8.8-20.7-9.1v-3.4 c0-1.5-1.9-2.9-3.8-2.9c-2.1,0-3.7,1.4-3.7,2.9v3.7c-12,1.3-24,7.6-24,23.5c0,16.2,12.6,20.7,24,24.8v29.7 c-12.9-1-16.3-9.9-20.5-9.9c-3.2,0-5.8,4.2-5.8,7.2c0,6.2,10.6,14.7,26.3,14.9h0v3.9c0,1.5,1.5,2.9,3.7,2.9 c1.9,0,3.8-1.4,3.8-2.9v-4.3c13.6-1.9,23-10.5,23-26C415.5,360.2,403.5,354.6,392.5,350.6z M385.8,348.2 c-6.7-2.5-12.1-5.2-12.1-12.4c0-6.6,5.1-9.7,12.1-10.6V348.2z M391.7,391.3v-26.7c6.2,2.7,11.1,6.2,11.1,14.1 C402.8,386,398.6,390,391.7,391.3z"></path> </g> </g> <path opacity="0.15" fill="#FF5F82" d="M144.1,311.5h-27.8V430h29.5V313.2C145.8,312.3,145,311.5,144.1,311.5z"></path> <path opacity="0.15" fill="#FF5F82" d="M279.6,252.3h-26.8V430h28.5V254C281.3,253.1,280.5,252.3,279.6,252.3z"></path> <path opacity="0.15" fill="#FF5F82" d="M440.3,306.4c-6-6-12.8-10.7-20.1-14.2c-0.4-0.2-0.7-0.3-1.1-0.5c-0.9-0.4-1.8-0.8-2.7-1.2 c-0.1-0.1-0.3-0.1-0.5-0.2c-8.6-3.5-17.8-5.2-27-5.2c-0.7,0-1.3,0.1-2,0.1v144.6c0.7,0,1.3,0,2,0c1,0,2.1,0,3.1-0.1 c0.3,0,0.5,0,0.8,0c0.8,0,1.7-0.1,2.5-0.2c0.6,0,1.1-0.1,1.7-0.2c0.1,0,0.3,0,0.4-0.1c8.1-1,16-3.3,23.3-6.8c0.1,0,0.2-0.1,0.3-0.1 c7-3.5,13.4-8.1,19.1-13.7C468.5,380.5,468.5,334.6,440.3,306.4z"></path> </g> </svg> 