<?xml version="1.0" encoding="UTF-8"?> <!-- Generator: Adobe Illustrator 18.0.0, SVG Export Plug-In . SVG Version: 6.00 Build 0) --> <svg xmlns="http://www.w3.org/2000/svg" xmlns:xlink="http://www.w3.org/1999/xlink" id="Capa_1" x="0px" y="0px" viewBox="0 0 512 512" xml:space="preserve"> <g> <path opacity="0.15" fill="#FF5F82" d="M194.7,296.6c15,0,29.5,3,43.1,9c1.2,0.5,2.6,0.8,3.9,0.8H353c10.6,0,19.6,8.7,19.6,19.6 c0,10.8-8.8,19.6-19.6,19.6H273c-5.4,0-9.8,4.4-9.8,9.8c0,5.4,4.4,9.8,9.8,9.8H353c21.6,0,39.2-17.6,39.2-39.2 c0-1.7-0.1-3.4-0.3-5.1c55.9-57.5,63.8-65.6,64.1-66c7-8.2,19.4-9.3,27.6-2.3c8.3,7,9.3,19.4,2.3,27.6l-87.9,105 c-12.8,12.3-29.7,19.1-47.5,19.1H220.3c-12.8,0-24.8,4.9-34,13.7l-8.3,8l-76.7-76.7C119.2,315.7,152.8,296.6,194.7,296.6z M71.9,361.6c3.2-3.2,8.2-3.8,12.1-1.4c1.5,0.9,85.3,84.9,85.8,85.6c2.9,3.9,2.5,9.3-0.9,12.7l-40.5,39.9l-96.2-97L71.9,361.6z"></path> <g> <path fill="#FF5F82" d="M295.9,154.4c-5.4,0-9.8,4.4-9.8,9.8c0,5.4,4.4,9.8,9.8,9.8s9.8-4.4,9.8-9.8 C305.6,158.8,301.3,154.4,295.9,154.4z"></path> <path fill="#FF5F82" d="M236.5,345.8c3.8-3.8,3.8-10,0-13.9c-3.8-3.8-10-3.8-13.9,0c-3.8,3.8-3.8,10,0,13.9 C226.4,349.6,232.6,349.6,236.5,345.8z"></path> <path fill="#FF5F82" d="M118.7,504.3c3.8,3.8,10,3.9,13.8,0.1l47.5-46.8c8.1-8.1,10.5-20,7-30.4l10.2-9.9 c5.5-5.3,12.7-8.2,20.4-8.2h130.2c23.1,0,44.9-8.9,61.5-25c0.7-0.7-5.2,6.2,88.8-106.1c13.9-16.5,11.9-41.3-4.7-55.2 c-16.4-13.8-41-11.8-55,4.4l-57.8,59.4c-7.3-9-18.4-14.6-30.5-14.6H241.1c-15.5-6.5-32-9.8-49.1-9.8c-47.2,0-88.3,21.8-110.5,62.6 c-9.3-1.8-19.1,1.1-26.2,8.1L8.8,379.7c-3.8,3.8-3.8,10,0,13.8L118.7,504.3z M192,281.8c15,0,29.5,3,43.1,9 c1.2,0.5,2.6,0.8,3.9,0.8h111.2c10.6,0,19.6,8.7,19.6,19.6c0,10.8-8.8,19.6-19.6,19.6h-79.9c-5.4,0-9.8,4.4-9.8,9.8 c0,5.4,4.4,9.8,9.8,9.8h79.9c21.6,0,39.2-17.6,39.2-39.2c0-1.7-0.1-3.4-0.3-5.1c55.9-57.5,63.8-65.6,64.1-66 c7-8.2,19.4-9.3,27.6-2.3c8.3,7,9.3,19.4,2.3,27.6l-87.9,105c-12.8,12.3-29.7,19.1-47.5,19.1H217.6c-12.8,0-24.8,4.9-34,13.7 l-8.3,8l-76.7-76.7C116.5,300.9,150.2,281.8,192,281.8z M69.2,346.8c3.2-3.2,8.2-3.8,12.1-1.4c1.5,0.9,85.3,84.9,85.8,85.6 c2.9,3.9,2.5,9.3-0.9,12.7l-40.5,39.9l-96.2-97L69.2,346.8z"></path> <path fill="#FF5F82" d="M158.7,213.2h235.1c16.2,0,29.4-13.2,29.4-29.4c0-24.7,0-131.1,0-148.9c0-16.2-13.2-29.4-29.4-29.4H158.7 c-16.2,0-29.4,13.2-29.4,29.4v148.9C129.3,200,142.5,213.2,158.7,213.2z M403.6,83.9H148.9V64.3h254.7V83.9z M393.8,193.6H158.7 c-5.4,0-9.8-4.4-9.8-9.8v-80.3h254.7v80.3C403.6,189.2,399.2,193.6,393.8,193.6z M158.7,25.1h235.1c5.4,0,9.8,4.4,9.8,9.8v9.8 H148.9v-9.8C148.9,29.5,153.3,25.1,158.7,25.1z"></path> <path fill="#FF5F82" d="M374.2,154.4H335c-5.4,0-9.8,4.4-9.8,9.8c0,5.4,4.4,9.8,9.8,9.8h39.2c5.4,0,9.8-4.4,9.8-9.8 C384,158.8,379.6,154.4,374.2,154.4z"></path> </g> <g> <path opacity="0.15" fill="#FF5F82" d="M333.8,193.6h60.4c5.4,0,9.8-4.4,9.8-9.8v-80.3h-70.2V193.6z"></path> <rect x="333.8" y="64.3" opacity="0.15" fill="#FF5F82" width="70.2" height="19.6"></rect> <path opacity="0.15" fill="#FF5F82" d="M394.2,25.1h-60.4v19.6H404v-9.8C404,29.5,399.6,25.1,394.2,25.1z"></path> </g> </g> </svg> 