<?xml version="1.0" encoding="UTF-8"?> <!-- Generator: Adobe Illustrator 18.0.0, SVG Export Plug-In . SVG Version: 6.00 Build 0) --> <svg xmlns="http://www.w3.org/2000/svg" xmlns:xlink="http://www.w3.org/1999/xlink" id="Capa_1" x="0px" y="0px" viewBox="0 0 1080 1080" xml:space="preserve"> <g> <path fill="#FFFFFF" d="M980.7,11.1h-154c-47.2,0-85.6,38.4-85.6,85.6v129.8l-72.9,72.9c-17.7-15-38.1-26.9-60.2-35.3 c38.7-24.2,64.6-67.1,64.6-116c0-75.5-61.4-136.9-136.9-136.9S399,72.6,399,148c0,48.9,25.9,91.8,64.6,116 C386,293.4,330.5,368.3,330.5,456v119.8c0,47.2,38.4,85.6,85.6,85.6v61.4L306.3,832.4H91c-47.2,0-85.6,38.4-85.6,85.6v68.4 c0,47.2,38.4,85.6,85.6,85.6h154c47.2,0,85.6-38.4,85.6-85.6V856.6l85.6-85.6v232.5c0,37.7,30.7,68.4,68.4,68.4 c20.5,0,38.8-9.3,51.3-23.6c12.6,14.4,30.8,23.6,51.3,23.6c37.7,0,68.4-30.7,68.4-68.4V661.3c47.2,0,85.6-38.4,85.6-85.6V456 c0-50.5-18.4-96.7-48.7-132.5l72.9-72.9h215.3c47.2,0,85.6-38.4,85.6-85.6V96.7C1066.3,49.5,1027.9,11.1,980.7,11.1z M296.3,986.4 c0,28.3-23,51.3-51.3,51.3H91c-28.3,0-51.3-23-51.3-51.3V918c0-28.3,23-51.3,51.3-51.3h205.3V986.4z M433.2,148 c0-56.6,46-102.7,102.7-102.7c56.6,0,102.7,46,102.7,102.7s-46,102.7-102.7,102.7C479.2,250.7,433.2,204.6,433.2,148z M706.9,575.8 c0,28.3-23,51.3-51.3,51.3V404.7h-34.2v598.9c0,18.9-15.3,34.2-34.2,34.2c-18.9,0-34.2-15.3-34.2-34.2V592.9h-34.2v410.6 c0,18.9-15.3,34.2-34.2,34.2s-34.2-15.3-34.2-34.2V404.7h-34.2v222.4c-28.3,0-51.3-23-51.3-51.3V456c0-94.3,76.8-171.1,171.1-171.1 S706.9,361.7,706.9,456V575.8z M1032,165.1c0,28.3-23,51.3-51.3,51.3H775.4V96.7c0-28.3,23-51.3,51.3-51.3h154 c28.3,0,51.3,23,51.3,51.3V165.1z"></path> <path fill="#FF5F83" d="M91,969.3h154c9.4,0,17.1,7.7,17.1,17.1l0,0c0,9.4-7.7,17.1-17.1,17.1H91c-9.4,0-17.1-7.7-17.1-17.1l0,0 C73.9,977,81.5,969.3,91,969.3z"></path> <path fill="#FF5F83" d="M91,900.9L91,900.9c9.4,0,17.1,7.7,17.1,17.1v0c0,9.4-7.7,17.1-17.1,17.1h0c-9.4,0-17.1-7.7-17.1-17.1v0 C73.9,908.5,81.5,900.9,91,900.9z"></path> <path fill="#FF5F83" d="M159.4,900.9H245c9.4,0,17.1,7.7,17.1,17.1v0c0,9.4-7.7,17.1-17.1,17.1h-85.6c-9.4,0-17.1-7.7-17.1-17.1v0 C142.3,908.5,150,900.9,159.4,900.9z"></path> <path fill="#FFFFFF" d="M1049.1,1003.5L1049.1,1003.5c9.4,0,17.1,7.7,17.1,17.1v0c0,9.4-7.7,17.1-17.1,17.1h0 c-9.4,0-17.1-7.7-17.1-17.1v0C1032,1011.2,1039.7,1003.5,1049.1,1003.5z"></path> <path fill="#FFFFFF" d="M706.9,1003.5h273.8c9.4,0,17.1,7.7,17.1,17.1v0c0,9.4-7.7,17.1-17.1,17.1H706.9c-9.4,0-17.1-7.7-17.1-17.1 v0C689.8,1011.2,697.5,1003.5,706.9,1003.5z"></path> <path fill="#FFFFFF" d="M193.6,387.6c103.8,0,188.2-84.4,188.2-188.2S297.4,11.1,193.6,11.1S5.4,95.6,5.4,199.4 S89.9,387.6,193.6,387.6z M347.6,199.4c0,28.5-7.9,55.1-21.5,78l-55.4-41.6c5.3-11.1,8.5-23.4,8.5-36.4c0-41.3-29.4-75.9-68.4-83.8 V46.4C287.6,54.9,347.6,120.2,347.6,199.4z M193.6,148c28.3,0,51.3,23,51.3,51.3s-23,51.3-51.3,51.3s-51.3-23-51.3-51.3 S165.3,148,193.6,148z M176.5,46.4v69.2c-39,8-68.4,42.5-68.4,83.8c0,47.2,38.4,85.6,85.6,85.6c21.7,0,41.4-8.4,56.5-21.8 l55.5,41.6c-28.1,29.8-67.9,48.6-112,48.6c-84.9,0-154-69.1-154-154C39.6,120.2,99.7,54.9,176.5,46.4z"></path> <g> <path fill="#FF5F83" d="M826.7,79.6h154c9.4,0,17.1,7.7,17.1,17.1v0c0,9.4-7.7,17.1-17.1,17.1h-154c-9.4,0-17.1-7.7-17.1-17.1v0 C809.6,87.2,817.3,79.6,826.7,79.6z"></path> <path fill="#FF5F83" d="M980.7,148L980.7,148c9.4,0,17.1,7.7,17.1,17.1v0c0,9.4-7.7,17.1-17.1,17.1l0,0c-9.4,0-17.1-7.7-17.1-17.1 v0C963.6,155.7,971.3,148,980.7,148z"></path> <path fill="#FF5F83" d="M826.7,148h85.6c9.4,0,17.1,7.7,17.1,17.1v0c0,9.4-7.7,17.1-17.1,17.1h-85.6c-9.4,0-17.1-7.7-17.1-17.1v0 C809.6,155.7,817.3,148,826.7,148z"></path> <path fill="#FF5F83" d="M1057.7,935.1H1032V661.3c0-9.4-7.7-17.1-17.1-17.1s-17.1,7.7-17.1,17.1v273.8h-34.1V695.7 c0-9.4-7.7-17.1-17.1-17.1c-9.4,0-17.1,7.7-17.1,17.1v239.4h-34.4V798.5c0-9.4-7.7-17.1-17.1-17.1c-9.4,0-17.1,7.7-17.1,17.1 v136.6h-34.6V747.9c0-9.4-7.7-17.1-17.1-17.1s-17.1,7.7-17.1,17.1v187.2h-33.3V781.7c0-9.4-7.7-17.1-17.1-17.1 s-17.1,7.7-17.1,17.1v153.4h-17.6c-9.4,0-17.1,7.7-17.1,17.1c0,9.4,7.7,17.1,17.1,17.1h350.8c9.4,0,17.1-7.7,17.1-17.1 C1074.8,942.8,1067.2,935.1,1057.7,935.1z"></path> <g> <path fill="#FF5F83" d="M176.7,46.4v69.2c-39,8-68.4,42.5-68.4,83.8c0,47.2,38.4,85.6,85.6,85.6c21.7,0,41.4-8.4,56.5-21.8 l55.5,41.6c-28.1,29.8-67.9,48.6-112,48.6c-84.9,0-154-69.1-154-154C39.8,120.2,99.8,54.9,176.7,46.4z"></path> </g> </g> </g> </svg> 