<?xml version="1.0" encoding="UTF-8"?> <!-- Generator: Adobe Illustrator 18.0.0, SVG Export Plug-In . SVG Version: 6.00 Build 0) --> <svg xmlns="http://www.w3.org/2000/svg" xmlns:xlink="http://www.w3.org/1999/xlink" id="Capa_1" x="0px" y="0px" viewBox="0 0 512 512" xml:space="preserve"> <g> <path fill="#FF5F82" d="M506.8,284l-14.9-29.8l14.9-29.8c1.2-2.4,1.2-5.1,0-7.5l-14.9-29.8l14.9-29.8c2.1-4.1,0.4-9.2-3.8-11.3 c-1.2-0.6-2.5-0.9-3.8-0.9H63c-32.4,0-58.7,26.3-58.7,58.7v151c0,4.6,3.8,8.4,8.4,8.4h83.9v-16.8H21.1V244.9 c4.8,4.9,10.5,9,16.8,12v47.7c0,4.6,3.8,8.4,8.4,8.4c1.7,0,3.3-0.5,4.7-1.4l20.5-13.7l20.5,13.7c3.9,2.6,9.1,1.5,11.6-2.3 c0.9-1.4,1.4-3,1.4-4.6v-58.7H104c0.3-0.3,0.6-0.6,0.9-0.9v0.9h58.7c4.6,0,8.4-3.8,8.4-8.4c0-1.7-0.5-3.3-1.4-4.7L157,212.2 l13.7-20.5c2.6-3.9,1.5-9.1-2.3-11.6c-1.4-0.9-3-1.4-4.6-1.4H116c-3-6.3-7-11.9-12-16.8h381.7L475,183.3c-1.2,2.4-1.2,5.1,0,7.5 l14.9,29.8L475,250.4c-1.2,2.4-1.2,5.1,0,7.5l14.9,29.8L475,317.5c-1.2,2.4-1.2,5.1,0,7.5l10.7,21.4H272.8v16.8h226.5 c4.6,0,8.4-3.7,8.4-8.3c0-1.3-0.3-2.6-0.9-3.8l-14.9-29.8l14.9-29.8C508,289.1,508,286.3,506.8,284z M88.2,288.8l-12.1-8.1 c-2.8-1.9-6.5-1.9-9.3,0l-12.1,8.1v-26.9c2.8,0.4,5.6,0.6,8.4,0.7c8.7,0,17.3-2,25.2-5.7V288.8z M121.7,203.8 c0-2.8-0.2-5.6-0.7-8.4H148l-8.1,12.1c-1.9,2.8-1.9,6.5,0,9.3L148,229h-32C119.8,221.2,121.7,212.6,121.7,203.8z M105,203.8 c0,23.2-18.8,41.9-41.9,41.9S21.1,227,21.1,203.8s18.8-41.9,41.9-41.9C86.2,161.9,104.9,180.7,105,203.8z"></path> <rect x="197.3" y="178.7" fill="#FF5F82" width="16.8" height="16.8"></rect> <rect x="197.3" y="212.2" fill="#FF5F82" width="16.8" height="16.8"></rect> <rect x="197.3" y="312.9" fill="#FF5F82" width="16.8" height="16.8"></rect> <rect x="197.3" y="245.8" fill="#FF5F82" width="16.8" height="16.8"></rect> <rect x="197.3" y="279.3" fill="#FF5F82" width="16.8" height="16.8"></rect> <path fill="#FF5F82" d="M230.8,296.1v25.2c0,4.6,3.8,8.4,8.4,8.4h50.3c4.6,0,8.4-3.8,8.4-8.4V187.1c0-4.6-3.8-8.4-8.4-8.4h-50.3 c-4.6,0-8.4,3.8-8.4,8.4v25.2h16.8v-16.8h33.6v50.3h-33.6v16.8h33.6v50.3h-33.6v-16.8H230.8z"></path> <path fill="#FF5F82" d="M373.4,329.7c4.6,0,8.4-3.8,8.4-8.4V187.1c0-4.6-3.8-8.4-8.4-8.4h-50.3c-4.6,0-8.4,3.8-8.4,8.4v134.2 c0,4.6,3.8,8.4,8.4,8.4H373.4z M331.5,195.4H365v117.5h-33.6V195.4z"></path> <rect x="344.2" y="245.8" transform="matrix(0.3162 -0.9487 0.9487 0.3162 48.6424 575.8301)" fill="#FF5F82" width="159.2" height="16.8"></rect> <rect x="440.5" y="312.9" fill="#FF5F82" width="16.8" height="16.8"></rect> <rect x="398.6" y="178.7" fill="#FF5F82" width="16.8" height="16.8"></rect> <path fill="#FF5F82" d="M63,170.3c-18.5,0-33.6,15-33.6,33.6s15,33.6,33.6,33.6s33.6-15,33.6-33.6S81.6,170.3,63,170.3z M63,220.6 c-9.3,0-16.8-7.5-16.8-16.8s7.5-16.8,16.8-16.8s16.8,7.5,16.8,16.8S72.3,220.6,63,220.6z"></path> <path fill="#FF5F82" d="M222.4,346.5h-41.9v-50.3c0-18.5-15-33.6-33.6-33.6s-33.6,15-33.6,33.6v92.3c0,2.2,0.9,4.4,2.5,5.9 l47.9,47.9v63.6h16.8v-67.1c0-2.2-0.9-4.4-2.5-5.9l-47.9-47.9v-88.8c0-9.3,7.5-16.8,16.8-16.8c9.3,0,16.8,7.5,16.8,16.8v58.7 c0,4.6,3.8,8.4,8.4,8.4h50.3c13.9,0,25.2,11.3,25.2,25.2V422h16.8v-33.6C264.3,365.2,245.6,346.5,222.4,346.5z"></path> <rect x="339.9" y="380" fill="#FF5F82" width="16.8" height="125.8"></rect> <path fill="#FF5F82" d="M163.7,61.2c0-9.3,7.5-16.8,16.8-16.8s16.8,7.5,16.8,16.8v67.1H214V36.1c0-9.3,7.5-16.8,16.8-16.8 s16.8,7.5,16.8,16.8v92.3h16.8V61.2c0-9.3,7.5-16.8,16.8-16.8s16.8,7.5,16.8,16.8v67.1h16.8V86.4c0-9.3,7.5-16.8,16.8-16.8 s16.8,7.5,16.8,16.8v41.9H365V86.4c0.1-18.4-14.7-33.4-33.2-33.6c-6.2,0-12.2,1.6-17.5,4.9c-1.8-18.2-18-31.6-36.2-29.9 c-5,0.5-9.8,2.1-14.1,4.7c-1.8-18.3-18.2-31.7-36.5-29.9c-15.8,1.6-28.3,14.1-29.9,29.9c-15.7-9.6-36.3-4.6-45.8,11.2 c-3.2,5.3-4.9,11.3-4.9,17.5v67.1h16.8V61.2z"></path> <path opacity="0.15" fill="#FF5F82" d="M502.9,146c-1.2-0.6-2.5-0.9-3.8-0.9H80.2c18.3,10.9,31,30.1,32.9,52.4h383.8l-5.2-10.4 l14.9-29.8C508.7,153.1,507,148.1,502.9,146z"></path> <path opacity="0.15" fill="#FF5F82" d="M222.4,363.2h-41.9v-50.3c0-18.5-15-33.6-33.6-33.6s-33.6,15-33.6,33.6v71.3h16.8v-71.3 c0-9.3,7.5-16.8,16.8-16.8c9.3,0,16.8,7.5,16.8,16.8v58.7c0,4.6,3.8,8.4,8.4,8.4h50.3c13.9,0,25.2,11.3,25.2,25.2v33.6h16.8v-33.6 C264.3,382,245.6,363.3,222.4,363.2z"></path> <path opacity="0.15" fill="#FF5F82" d="M163.7,121.1V78c0-9.3,7.5-16.8,16.8-16.8c9.3,0,16.8,7.5,16.8,16.8v43.1H214V52.8 c0-9.3,7.5-16.8,16.8-16.8c9.3,0,16.8,7.5,16.8,16.8v68.3h16.8V78c0-9.3,7.5-16.8,16.8-16.8c9.3,0,16.8,7.5,16.8,16.8v43.1h16.8 v-17.9c0-9.3,7.5-16.8,16.8-16.8c9.3,0,16.8,7.5,16.8,16.8v17.9H365v-17.9c0.1-18.4-14.7-33.4-33.2-33.6c-6.2,0-12.2,1.6-17.5,4.9 c-1.8-18.2-18-31.6-36.2-29.9c-5,0.5-9.8,2.1-14.1,4.7c-1.8-18.3-18.2-31.7-36.5-29.9c-15.8,1.6-28.3,14.1-29.9,29.9 c-15.7-9.6-36.3-4.6-45.8,11.2c-3.2,5.3-4.9,11.3-4.9,17.5v43.1H163.7z"></path> </g> </svg> 