<?xml version="1.0" encoding="UTF-8"?> <!-- Generator: Adobe Illustrator 18.0.0, SVG Export Plug-In . SVG Version: 6.00 Build 0) --> <svg xmlns="http://www.w3.org/2000/svg" xmlns:xlink="http://www.w3.org/1999/xlink" id="Capa_1" x="0px" y="0px" viewBox="0 0 1080 1080" xml:space="preserve"> <g> <path fill="#FF5F83" d="M1039.3,986.3c0,29.5-23.9,53.4-53.4,53.4H611.8l0.8-112.6c41.1,14.1,86.5,1.9,115.1-30.8 c28.6-32.7,34.5-79.4,15.1-118.2c-19.4-38.8-60.4-62-103.7-58.7c-9.5,1.5-18.7,4.4-27.4,8.6v-98h122c12.5,0.1,24.1-6.5,30.3-17.4 c6.3-11.2,6.2-25-0.3-36.1c-10.7-18.6-12.4-41.1-4.7-61.2c7.7-20.1,24.1-35.5,44.6-42.1h0.2c7-2.3,14.3-3.5,21.6-3.6 c22.4,0.1,43.5,10.6,57,28.5c9.3,12.3,14.4,27.3,14.3,42.8c0,12.5-3.3,24.7-9.5,35.5c-6.5,11.2-6.5,25-0.2,36.2 c6.2,10.8,17.8,17.5,30.3,17.4h121.9V986.3z"></path> <path fill="#FF5F83" d="M41.7,95.7c0-29.5,23.9-53.4,53.4-53.4h374.1v113c-0.1,11.4,5.4,22.1,14.7,28.7c9.7,6.9,22.1,8.6,33.3,4.7 c27.3-9,57.4-1.1,76.7,20.3c10.2,11.4,16.3,25.8,17.6,41c0.4,5.1,0.3,10.3-0.3,15.4c-4.5,32.6-30.5,57.9-63.1,61.8 c-10.4,1.1-21-0.1-30.9-3.6c-11.2-3.9-23.6-2.1-33.3,4.7c-9.3,6.6-14.8,17.3-14.8,28.7v113.1l-121.6,0.6c0.9-1.6,1.5-3.4,2.4-5.1 c14.6-27.6,16.4-60.2,4.8-89.1c-11.6-29-35.4-51.3-65-61.2c-4.3-1.5-8.7-2.7-13.1-3.6c-3.9-0.7-7.9-1.3-11.9-1.6h-0.2 c-3-0.2-5.9-0.4-8.9-0.4c-0.5,0-1.1,0.1-1.6,0.1c-5,0.1-10,0.5-14.9,1.3c-1.6,0.3-3.2,0.6-4.8,0.9c-4.2,0.8-8.3,1.9-12.3,3.2 c-1.1,0.4-2.2,0.6-3.3,1c-4.8,1.8-9.6,4-14.1,6.4c-1.2,0.7-2.5,1.4-3.7,2.1c-4.6,2.7-9,5.7-13.1,9l-0.3,0.2c-3.1,2.5-6,5.3-8.8,8.1 c-19.3,19.9-30.1,46.6-30.1,74.3c0,16.8,4.2,33.4,12.3,48.1c0.9,1.8,1.8,3.6,2.8,5.3h-122V95.7z"></path> <g> <path fill="#FFFFFF" d="M1039.3,594.4l-121.1-0.1c15.6-27,18.6-59.5,8.1-88.9h6.2c19.7,0,35.6-15.9,35.6-35.6V95.7 c-0.1-49.2-39.9-89-89.1-89.1H95.2C46,6.7,6.2,46.5,6.1,95.7v765.9c0.1,49.2,39.9,89,89.1,89.1h374.1c19.7,0,35.6-15.9,35.6-35.6 l0.7-112.7c11.2,3.9,23.1,5.9,34.9,5.8c36.2,0,70-18.5,89.6-49c9-3.4,12-4.3,11.7-4.3c35.7-2.4,67.8,21.7,75.5,56.7 c4.4,21.1-1.1,43.1-14.9,59.7c-19.1,22.6-50,31.3-78.1,22.1c-11.2-3.9-23.6-2.1-33.3,4.7c-9.3,6.6-14.8,17.3-14.8,28.7v113 c0,19.7,15.9,35.6,35.6,35.6h374.1c49.2-0.1,89-39.9,89.1-89.1V630.1C1074.9,610.4,1058.9,594.4,1039.3,594.4z M932.4,95.7v374.1 h-27.2c-20.6-23.1-50.2-36.2-81.2-35.6c3.8-22.8,0.2-46.2-10.2-66.8c-14.4-28.2-40.6-48.5-71.5-55.3c-31.7-7.2-65,0.5-90.4,20.8 c-25.4,20.3-40.2,51-40.2,83.5c-0.1,18.9,5.2,37.4,15.1,53.4H505l0.7-112.7c52.2,18,109.6-6.9,132.1-57.3 c4.5-9.6,7.5-19.8,8.9-30.3c4.7-36.8-10-73.5-38.9-96.8c-28.9-23.3-67.8-29.9-102.8-17.5v-113h374.1 C908.5,42.2,932.4,66.2,932.4,95.7z M733.8,594.4h-122c-9.5,0-18.6,3.8-25.3,10.6c-25.5-12.2-54.9-13.9-81.6-4.5v-95.1h122 c12.5,0.1,24.1-6.5,30.3-17.4c6.3-11.2,6.2-25-0.3-36.1c-14.2-24.6-12.5-55.3,4.4-78.1c16.9-22.8,45.8-33.4,73.5-27 c20.4,4.4,37.7,17.8,47.2,36.4c9.3,18.6,10.1,40.2,2.4,59.4c-39.8,16.4-65.8,55.2-65.7,98.3C718.5,559.9,723.8,578.4,733.8,594.4z M41.7,95.7c0-29.5,23.9-53.4,53.4-53.4h374.1v113c-0.1,11.4,5.4,22.1,14.7,28.7c9.7,6.9,22.1,8.6,33.3,4.7 c27.3-9,57.4-1.1,76.7,20.3c10.2,11.4,16.3,25.8,17.6,41c0.4,5.1,0.3,10.3-0.3,15.4c-4.5,32.6-30.5,57.9-63.1,61.8 c-10.4,1.1-21-0.1-30.9-3.6c-11.2-3.9-23.6-2.1-33.3,4.7c-9.3,6.6-14.8,17.3-14.8,28.7v113.1l-121.6,0.6c0.9-1.6,1.5-3.4,2.4-5.1 c14.6-27.6,16.4-60.2,4.8-89.1c-11.6-29-35.4-51.3-65-61.2c-4.3-1.5-8.7-2.7-13.1-3.6c-3.9-0.7-7.9-1.3-11.9-1.6h-0.2 c-3-0.2-5.9-0.4-8.9-0.4c-0.5,0-1.1,0.1-1.6,0.1c-5,0.1-10,0.5-14.9,1.3c-1.6,0.3-3.2,0.6-4.8,0.9c-4.2,0.8-8.3,1.9-12.3,3.2 c-1.1,0.4-2.2,0.6-3.3,1c-4.8,1.8-9.6,4-14.1,6.4c-1.2,0.7-2.5,1.4-3.7,2.1c-4.6,2.7-9,5.7-13.1,9l-0.3,0.2 c-3.1,2.5-6,5.3-8.8,8.1c-19.3,19.9-30.1,46.6-30.1,74.3c0,16.8,4.2,33.4,12.3,48.1c0.9,1.8,1.8,3.6,2.8,5.3h-122V95.7z M517.3,768.7c-11.2-3.9-23.6-2.2-33.3,4.7c-9.3,6.6-14.9,17.3-14.8,28.7v112.9H95.2c-29.5,0-53.4-23.9-53.4-53.4V505.4h122 c3.1,0,6.1-0.4,9.1-1.2c8.9-2.4,16.5-8.2,21.1-16.2c5-8.8,6-19.2,2.9-28.8c-0.8-2.6-1.8-5.1-3.1-7.6c-1.5-2.6-2.9-5.3-4.1-8.2 c-10.1-24.4-5.8-52.3,11-72.7c16.8-20.3,43.5-29.7,69.3-24.3c3.4,0.7,6.8,1.6,10,2.7c19.4,7,34.8,22.2,42.1,41.5 c7.3,19.3,5.9,40.8-4,59c-0.5,0.9-0.7,1.8-1.3,2.7c-1.4,2.5-2.6,5.2-3.3,7.9c0,0.2-0.2,0.3-0.2,0.5c-0.1,0.5,0,1.1-0.2,1.6 c-1.9,8.4-0.6,17.3,3.7,24.8c0.4,0.7,1,1.2,1.4,1.8c6.6,10.1,17.8,16.3,29.9,16.4h121.1v95.1c-0.1,11.4,5.4,22.1,14.7,28.7 c9.7,6.9,22.2,8.6,33.4,4.6c19.5-6.4,40.9-4.3,58.8,5.8V728c0.1,10,4.4,19.5,11.9,26.2c-13,11.8-30,18.3-47.5,18.4 C532.6,772.6,524.8,771.3,517.3,768.7z M1039.3,986.3c0,29.5-23.9,53.4-53.4,53.4H611.8l0.8-112.6c41.1,14.1,86.5,1.9,115.1-30.8 c28.6-32.7,34.5-79.4,15.1-118.2c-19.4-38.8-60.4-62-103.7-58.7c-9.5,1.5-18.7,4.4-27.4,8.6v-98h122c12.5,0.1,24.1-6.5,30.3-17.4 c6.3-11.2,6.2-25-0.3-36.1c-10.7-18.6-12.4-41.1-4.7-61.2c7.7-20.1,24.1-35.5,44.6-42.1h0.2c7-2.3,14.3-3.5,21.6-3.6 c22.4,0.1,43.5,10.6,57,28.5c9.3,12.3,14.4,27.3,14.3,42.8c0,12.5-3.3,24.7-9.5,35.5c-6.5,11.2-6.5,25-0.2,36.2 c6.2,10.8,17.8,17.5,30.3,17.4h121.9V986.3z"></path> </g> </g> </svg> 