<?xml version="1.0" encoding="UTF-8"?> <!-- Generator: Adobe Illustrator 18.0.0, SVG Export Plug-In . SVG Version: 6.00 Build 0) --> <svg xmlns="http://www.w3.org/2000/svg" xmlns:xlink="http://www.w3.org/1999/xlink" id="Capa_1" x="0px" y="0px" viewBox="0 0 512 512" xml:space="preserve"> <g> <rect x="82.9" y="11.5" opacity="0.15" fill="#FF5F82" width="61" height="29.8"></rect> <rect x="223" y="11.5" opacity="0.15" fill="#FF5F82" width="37.9" height="29.8"></rect> <rect x="165.9" y="80.7" opacity="0.15" fill="#FF5F82" width="37.9" height="29.8"></rect> <rect x="61.9" y="80.7" opacity="0.15" fill="#FF5F82" width="29.3" height="29.8"></rect> <rect x="390.8" y="11.5" opacity="0.15" fill="#FF5F82" width="100.9" height="29.8"></rect> <rect x="366.8" y="80.7" opacity="0.15" fill="#FF5F82" width="124.9" height="29.8"></rect> <path opacity="0.15" fill="#FF5F82" d="M281.1,150.6C281.1,150.6,281.1,150.6,281.1,150.6l0,40.3c0,0,0,0,0,0 c54.6,0.1,98.9,44.3,98.9,98.9c0,54.6-44.3,98.9-98.9,98.9c0,0,0,0,0,0V429c0,0,0,0,0,0c76.9,0,139.2-62.3,139.2-139.2 C420.2,213,357.9,150.7,281.1,150.6z"></path> <path fill="#FF5F82" d="M475.3,222.2h-33.8c-4.7,0-8.4,3.8-8.4,8.4c0,4.7,3.8,8.4,8.4,8.4h33.8c4.7,0,8.4,3.8,8.4,8.4V332 c0,4.7-3.8,8.4-8.4,8.4h-33.8c-4.7,0-8.4,3.8-8.4,8.4c0,4.7,3.8,8.4,8.4,8.4h33.8c14,0,25.3-11.3,25.3-25.3v-84.5 C500.7,233.6,489.3,222.2,475.3,222.2z"></path> <path fill="#FF5F82" d="M36.7,357.4h83.9c4.7,0,8.4-3.8,8.4-8.4c0-4.7-3.8-8.4-8.4-8.4H36.7c-4.7,0-8.4-3.8-8.4-8.4v-84.5 c0-4.7,3.8-8.4,8.4-8.4h83.9c4.7,0,8.4-3.8,8.4-8.4c0-4.7-3.8-8.4-8.4-8.4H61.7v-8.4c0-4.7-3.8-8.4-8.4-8.4c-4.7,0-8.4,3.8-8.4,8.4 v8.4h-8.2c-14,0-25.3,11.3-25.3,25.3V332C11.3,346,22.7,357.4,36.7,357.4z"></path> <path fill="#FF5F82" d="M281.1,180c-60.6,0-109.8,49.2-109.8,109.8s49.2,109.8,109.8,109.8s109.8-49.2,109.8-109.8 C390.8,229.2,341.7,180.1,281.1,180z M281.1,382.7c-51.3,0-92.9-41.6-92.9-92.9s41.6-92.9,92.9-92.9s92.9,41.6,92.9,92.9 C373.9,341.1,332.4,382.6,281.1,382.7z"></path> <path fill="#FF5F82" d="M44.8,264.5v50.7c0,4.7,3.8,8.4,8.4,8.4c4.7,0,8.4-3.8,8.4-8.4v-50.7c0-4.7-3.8-8.4-8.4-8.4 C48.6,256,44.8,259.8,44.8,264.5z"></path> <path fill="#FF5F82" d="M422.1,390.6c-3.3-3.2-8.6-3.2-11.9,0.1l-8.2,8.2l-13.7-13.7c-0.1-0.1-0.1-0.1-0.2-0.1 c51.8-58.3,47.9-147.2-8.8-200.6s-145.7-52.2-200.8,2.9s-56.4,144.1-2.9,200.8s142.4,60.6,200.6,8.8c0.1,0.1,0.1,0.1,0.1,0.2 l13.7,13.7l-9.7,9.7c-1.6,1.6-2.5,3.8-2.5,6c0,2.3,0.9,4.4,2.6,6l69.8,68.2c7.5,7.5,18.4,10.4,28.6,7.6 c10.2-2.7,18.2-10.7,20.9-20.9c2.7-10.2-0.2-21.1-7.7-28.5L422.1,390.6z M281.1,416.5c-70,0-126.7-56.7-126.7-126.7 s56.7-126.7,126.7-126.7s126.7,56.7,126.7,126.7C407.7,359.7,351,416.4,281.1,416.5z M416.3,408.5l49.2,48.1l-17.9,17.9l-49.2-48.1 L416.3,408.5z M480.1,488.8c-2.4,2.4-5.6,3.7-9,3.7c-3.4,0-6.6-1.4-9-3.8l-2.4-2.4l17.9-17.9l2.5,2.5 C485,475.8,485,483.8,480.1,488.8L480.1,488.8z"></path> <polygon opacity="0.15" fill="#FF5F82" points="416.3,408.5 465.5,456.7 447.6,474.6 398.4,426.5 "></polygon> <path opacity="0.15" fill="#FF5F82" d="M480.1,488.8c-2.4,2.4-5.6,3.7-9,3.7c-3.4,0-6.6-1.4-9-3.8l-2.4-2.4l17.9-17.9l2.5,2.5 C485,475.8,485,483.8,480.1,488.8L480.1,488.8z"></path> <path fill="#FF5F82" d="M344,256.9c-2-1-4.3-1.2-6.4-0.5c-2.1,0.7-3.9,2.2-4.9,4.2l-25.1,50.2L289,261.5c-1.2-3.3-4.4-5.5-7.9-5.5 s-6.7,2.2-7.9,5.5l-18.5,49.4l-25.1-50.2c-2.1-4.2-7.2-5.9-11.3-3.8c-4.2,2.1-5.9,7.2-3.8,11.3l33.8,67.6c1.5,3,4.6,4.9,8,4.7 c3.4-0.2,6.3-2.3,7.5-5.5l17.4-46.5l17.4,46.5c1.2,3.2,4.1,5.3,7.5,5.5h0.4c3.2,0,6.2-1.8,7.6-4.7l33.8-67.6 C349.9,264,348.1,259,344,256.9z"></path> <path fill="#FF5F82" d="M28.2,53.3h109.3c9.3,0,16.9-7.6,16.9-16.9V19.5c0-9.3-7.6-16.9-16.9-16.9H28.2c-9.3,0-16.9,7.6-16.9,16.9 v16.9C11.3,45.7,18.9,53.3,28.2,53.3z M28.2,19.5h109.3v16.9H28.2V19.5z"></path> <path fill="#FF5F82" d="M230.4,87.1V104c0,9.3,7.6,16.9,16.9,16.9h236.5c9.3,0,16.9-7.6,16.9-16.9V87.1c0-9.3-7.6-16.9-16.9-16.9 H247.3C238,70.2,230.4,77.8,230.4,87.1z M483.8,104H247.3V87.1h236.5V104z"></path> <path fill="#FF5F82" d="M188.2,53.3h67.6c9.3,0,16.9-7.6,16.9-16.9V19.5c0-9.3-7.6-16.9-16.9-16.9h-67.6c-9.3,0-16.9,7.6-16.9,16.9 v16.9C171.3,45.7,178.8,53.3,188.2,53.3z M188.2,19.5h67.6v16.9h-67.6V19.5z"></path> <path fill="#FF5F82" d="M129,70.2c-9.3,0-16.9,7.6-16.9,16.9V104c0,9.3,7.6,16.9,16.9,16.9h67.6c9.3,0,16.9-7.6,16.9-16.9V87.1 c0-9.3-7.6-16.9-16.9-16.9H129z M129,104V87.1h67.6V104H129z"></path> <path fill="#FF5F82" d="M28.2,120.9h16.6v8.4c0,4.7,3.8,8.4,8.4,8.4c4.7,0,8.4-3.8,8.4-8.4v-8.4h16.6c9.3,0,16.9-7.6,16.9-16.9 V87.1c0-9.3-7.6-16.9-16.9-16.9H28.2c-9.3,0-16.9,7.6-16.9,16.9V104C11.3,113.3,18.9,120.9,28.2,120.9z M28.2,87.1h50.1V104H28.2 V87.1z"></path> <path fill="#FF5F82" d="M306.4,53.3h177.4c9.3,0,16.9-7.6,16.9-16.9V19.5c0-9.3-7.6-16.9-16.9-16.9H306.4 c-9.3,0-16.9,7.6-16.9,16.9v16.9C289.5,45.7,297.1,53.3,306.4,53.3z M306.4,19.5h177.4v16.9H306.4V19.5z"></path> <path fill="#FF5F82" d="M53.3,154.7c-4.7,0-8.4,3.8-8.4,8.4V180c0,4.7,3.8,8.4,8.4,8.4c4.7,0,8.4-3.8,8.4-8.4v-16.9 C61.7,158.4,58,154.7,53.3,154.7z"></path> </g> </svg> 