<?xml version="1.0" encoding="UTF-8"?> <!-- Generator: Adobe Illustrator 18.0.0, SVG Export Plug-In . SVG Version: 6.00 Build 0) --> <svg xmlns="http://www.w3.org/2000/svg" xmlns:xlink="http://www.w3.org/1999/xlink" id="Capa_1" x="0px" y="0px" viewBox="0 0 512 512" xml:space="preserve"> <g> <polygon opacity="0.15" fill="#FF5F82" points="257.5,176.7 190,109.1 91,208.2 91,254.8 368.5,254.8 368.5,65.7 "></polygon> <circle opacity="0.15" fill="#FF5F82" cx="378.4" cy="403.4" r="95.2"></circle> <circle fill="#FFFFFF" cx="378.4" cy="403.4" r="55.2"></circle> <path fill="#FF5F82" d="M283.3,488.7h-224c-5.5,0-9.9-4.4-9.9-9.9v-448c0-5.5,4.4-9.9,9.9-9.9h341c5.5,0,9.9,4.4,9.9,9.9v197.7 c0,5.5,4.4,9.9,9.9,9.9c5.5,0,9.9-4.4,9.9-9.9V30.7C430,14.3,416.6,1,400.2,1h-341C42.8,1,29.5,14.3,29.5,30.7v448 c0,16.4,13.3,29.7,29.7,29.7h224c5.5,0,9.9-4.4,9.9-9.9C293.2,493.1,288.7,488.7,283.3,488.7z"></path> <path fill="#FF5F82" d="M420,252.8c-2.6,0-5.2,1.1-7,2.9c-1.8,1.8-2.9,4.4-2.9,7c0,2.6,1.1,5.2,2.9,7c1.8,1.8,4.4,2.9,7,2.9 s5.2-1.1,7-2.9c1.8-1.8,2.9-4.4,2.9-7c0-2.6-1.1-5.2-2.9-7C425.2,253.8,422.6,252.8,420,252.8z"></path> <path fill="#FF5F82" d="M91,74.4c2.6,0,5.2-1.1,7-2.9c1.8-1.8,2.9-4.4,2.9-7c0-2.6-1.1-5.2-2.9-7c-1.8-1.8-4.4-2.9-7-2.9 c-2.6,0-5.2,1.1-7,2.9c-1.8,1.8-2.9,4.4-2.9,7s1.1,5.2,2.9,7C85.8,73.3,88.3,74.4,91,74.4z"></path> <path fill="#FF5F82" d="M376.1,72.1c3.9-3.9,3.9-10.1,0-14c-3.9-3.9-10.1-3.9-14,0L257.5,162.7L197,102.1c-3.9-3.9-10.1-3.9-14,0 l-82.1,82.1v-79.8c0-5.5-4.4-9.9-9.9-9.9c-5.5,0-9.9,4.4-9.9,9.9v150.4c0,5.5,4.4,9.9,9.9,9.9h277.5c5.5,0,9.9-4.4,9.9-9.9V127.9 c0-5.5-4.4-9.9-9.9-9.9s-9.9,4.4-9.9,9.9v117h-35.7V125.3L376.1,72.1z M247.6,244.8h-35.7v-99.8l35.7,35.7V244.8z M190,123.2 l2.1,2.1v119.6h-35.7v-88.1L190,123.2z M100.9,212.3l35.7-35.7v68.3h-35.7V212.3z M303.1,244.8h-35.7v-64l35.7-35.7V244.8z"></path> <path fill="#FF5F82" d="M181.2,292.4H91c-5.5,0-9.9,4.4-9.9,9.9c0,5.5,4.4,9.9,9.9,9.9h90.2c5.5,0,9.9-4.4,9.9-9.9 C191.1,296.9,186.6,292.4,181.2,292.4z"></path> <path fill="#FF5F82" d="M181.2,340H91c-5.5,0-9.9,4.4-9.9,9.9c0,5.5,4.4,9.9,9.9,9.9h90.2c5.5,0,9.9-4.4,9.9-9.9 C191.1,344.4,186.6,340,181.2,340z"></path> <path fill="#FF5F82" d="M181.2,387.6H91c-5.5,0-9.9,4.4-9.9,9.9c0,5.5,4.4,9.9,9.9,9.9h90.2c5.5,0,9.9-4.4,9.9-9.9 C191.1,392,186.6,387.6,181.2,387.6z"></path> <path fill="#FF5F82" d="M181.2,435.2H91c-5.5,0-9.9,4.4-9.9,9.9c0,5.5,4.4,9.9,9.9,9.9h90.2c5.5,0,9.9-4.4,9.9-9.9 C191.1,439.6,186.6,435.2,181.2,435.2z"></path> <path fill="#FF5F82" d="M378.4,298.4c-25.4,0-48.7,9.1-66.9,24.1l-0.2-0.2V301c0-5.5-4.4-9.9-9.9-9.9c-5.5,0-9.9,4.4-9.9,9.9v1.5 L283,294c-3.9-3.9-10.1-3.9-14,0c-3.9,3.9-3.9,10.1,0,14l8.5,8.5H276c-5.5,0-9.9,4.4-9.9,9.9c0,5.5,4.4,9.9,9.9,9.9h21.3l0.2,0.2 c-15.1,18.2-24.1,41.5-24.1,66.9c0,57.9,47.1,105.1,105.1,105.1s105.1-47.1,105.1-105.1S436.3,298.4,378.4,298.4z M378.4,488.7 c-47,0-85.2-38.2-85.2-85.2c0-19.9,6.9-38.3,18.4-52.8l14.1,14.1c-8,10.8-12.7,24.2-12.7,38.7c0,36.1,29.3,65.4,65.4,65.4 s65.4-29.3,65.4-65.4S414.5,338,378.4,338c-14.5,0-27.8,4.7-38.7,12.7l-14.1-14.1c14.5-11.5,32.9-18.4,52.8-18.4 c47,0,85.2,38.2,85.2,85.2S425.4,488.7,378.4,488.7z M351.6,390.6c-1.9,3.9-2.9,8.2-2.9,12.8c0,16.4,13.3,29.7,29.7,29.7 c16.4,0,29.7-13.3,29.7-29.7c0-16.4-13.3-29.7-29.7-29.7c-4.6,0-8.9,1-12.8,2.9L354,365c7.1-4.5,15.5-7.1,24.4-7.1 c25.1,0,45.6,20.5,45.6,45.6c0,25.1-20.5,45.6-45.6,45.6c-25.1,0-45.6-20.5-45.6-45.6c0-9,2.6-17.4,7.1-24.4L351.6,390.6z M369.1,404.1c2.5,0,5.1-1,7-2.9c2.1-2.1,3-4.9,2.9-7.6c5.2,0.3,9.3,4.6,9.3,9.9c0,5.5-4.4,9.9-9.9,9.9c-5.3,0-9.6-4.1-9.9-9.3 C368.7,404.1,368.9,404.1,369.1,404.1z"></path> </g> </svg> 