<?xml version="1.0" encoding="UTF-8"?> <!-- Generator: Adobe Illustrator 18.0.0, SVG Export Plug-In . SVG Version: 6.00 Build 0) --> <svg xmlns="http://www.w3.org/2000/svg" xmlns:xlink="http://www.w3.org/1999/xlink" id="Capa_1" x="0px" y="0px" viewBox="0 0 512 512" xml:space="preserve"> <g> <g> <g> <g> <path fill="#FF5F82" d="M197.1,63.4c-5.4,0-9.8,4.4-9.8,9.8s4.4,9.8,9.8,9.8c5.4,0,9.8-4.4,9.8-9.8S202.5,63.4,197.1,63.4z"></path> </g> </g> </g> <g> <g> <g> <path fill="#FF5F82" d="M256,142c-5.4,0-9.8-4.4-9.8-9.8c0-5.4,4.4-9.8,9.8-9.8c3.5,0,7.2,1.8,10.6,5.1 c3.9,3.8,10.1,3.7,13.9-0.2c3.8-3.9,3.7-10.1-0.2-13.9c-5-4.8-10-7.6-14.5-9V92.9c0-5.4-4.4-9.8-9.8-9.8c-5.4,0-9.8,4.4-9.8,9.8 v11.5c-11.4,4.1-19.6,15-19.6,27.8c0,16.3,13.2,29.5,29.5,29.5c5.4,0,9.8,4.4,9.8,9.8s-4.4,9.8-9.8,9.8c-4.2,0-8.7-2.6-12.8-7.4 c-3.5-4.2-9.7-4.7-13.8-1.2c-4.2,3.5-4.7,9.7-1.2,13.8c5.3,6.2,11.4,10.6,18,12.8v11.5c0,5.4,4.4,9.8,9.8,9.8 c5.4,0,9.8-4.4,9.8-9.8v-11.5c11.4-4.1,19.6-15,19.6-27.8C285.5,155.3,272.3,142,256,142z"></path> </g> </g> </g> <g> <g> <g> <path fill="#FF5F82" d="M468.2,147.9c-21.7,0-39.3,17.6-39.3,39.3v70c-13.1-3.4-27.5,0.1-37.6,10.3l-65.9,65.9 c-9.3,9.3-14.4,21.6-14.4,34.7V426h-9.8c-5.4,0-9.8,4.4-9.8,9.8v61.9c0,5.4,4.4,9.8,9.8,9.8h137.5c5.4,0,9.8-4.4,9.8-9.8v-61.9 c0-5.4-4.4-9.8-9.8-9.8h-9.8v-4.6c0-2.6,1-5.1,2.9-6.9l61.3-61.3c9.3-9.3,14.4-21.6,14.4-34.7V187.2 C507.5,165.6,489.9,147.9,468.2,147.9z M428.9,487.9H311v-42.2h117.9V487.9z M487.9,318.3c0,7.9-3.1,15.3-8.6,20.8l-61.3,61.3 c-5.5,5.5-8.6,13.1-8.6,20.8v4.6h-78.6v-57.8c0-7.9,3.1-15.3,8.6-20.8l65.9-65.9c7.4-7.4,19.2-7.7,27-0.8c0.1,0,0.1,0.1,0.2,0.1 c0.2,0.2,0.4,0.4,0.6,0.6c3.7,3.7,5.8,8.6,5.8,13.9c0,5.2-2,10.2-5.8,13.9L384.2,358c-3.8,3.8-3.8,10.1,0,13.9 c3.8,3.8,10.1,3.8,13.9,0l48.8-48.8c7.4-7.4,11.5-17.3,11.5-27.8c0-9.7-3.5-18.8-9.8-26v-82.1c0-10.8,8.8-19.6,19.6-19.6 s19.6,8.8,19.6,19.6V318.3z"></path> </g> </g> </g> <g opacity="0.15"> <g> <path fill="#FF5F82" d="M439.4,487.9H321.5v-42.2h117.9V487.9z M498.3,318.3c0,7.9-3.1,15.3-8.6,20.8l-61.3,61.3 c-5.5,5.5-8.6,13.1-8.6,20.8v4.6h-78.6v-57.8c0-7.9,3.1-15.3,8.6-20.8l65.9-65.9c7.4-7.4,19.2-7.7,27-0.8c0.1,0,0.1,0.1,0.2,0.1 c0.2,0.2,0.4,0.4,0.6,0.6c3.7,3.7,5.8,8.6,5.8,13.9c0,5.2-2,10.2-5.8,13.9L394.7,358c-3.8,3.8-3.8,10.1,0,13.9 c3.8,3.8,10.1,3.8,13.9,0l48.8-48.8c7.4-7.4,11.5-17.3,11.5-27.8c0-9.7-3.5-18.8-9.8-26v-82.1c0-10.8,8.8-19.6,19.6-19.6 s19.6,8.8,19.6,19.6V318.3z"></path> </g> </g> <g opacity="0.15"> <g> <path fill="#FF5F82" d="M72.6,445.6h117.9v42.2H72.6V445.6z M13.7,187.2c0-10.8,8.8-19.6,19.6-19.6s19.6,8.8,19.6,19.6v82.1 c-6.3,7.2-9.8,16.3-9.8,26c0,10.5,4.1,20.4,11.5,27.8l48.8,48.8c3.8,3.8,10.1,3.8,13.9,0c3.8-3.8,3.8-10.1,0-13.9l-48.8-48.8 c-3.7-3.7-5.8-8.6-5.8-13.9c0-5.2,2-10.2,5.8-13.9c0.2-0.2,0.4-0.4,0.6-0.6c0.1,0,0.1-0.1,0.2-0.1c7.7-7,19.6-6.6,27,0.8 l65.9,65.9c5.6,5.6,8.6,13,8.6,20.8V426H92.2v-4.6c0-7.8-3.1-15.4-8.6-20.8l-61.3-61.3c-5.6-5.6-8.6-13-8.6-20.8V187.2z"></path> </g> </g> <g> <g> <g> <path fill="#FF5F82" d="M210.8,426H201v-57.8c0-13.1-5.1-25.5-14.4-34.7l-65.9-65.9c-10.2-10.2-24.6-13.6-37.6-10.3v-70 c0-21.7-17.6-39.3-39.3-39.3S4.5,165.6,4.5,187.2v131.1c0,13.1,5.1,25.5,14.4,34.7l61.3,61.3c1.8,1.8,2.9,4.4,2.9,6.9v4.6h-9.8 c-5.4,0-9.8,4.4-9.8,9.8v61.9c0,5.4,4.4,9.8,9.8,9.8h137.5c5.4,0,9.8-4.4,9.8-9.8v-61.9C220.6,430.4,216.2,426,210.8,426z M32.8,339.2c-5.6-5.6-8.6-13-8.6-20.8V187.2c0-10.8,8.8-19.6,19.6-19.6s19.6,8.8,19.6,19.6v82.1c-6.3,7.2-9.8,16.3-9.8,26 c0,10.5,4.1,20.4,11.5,27.8l49.1,49.1c3.8,3.8,10.1,3.8,13.9,0c3.8-3.8,3.8-10.1,0-13.9L79,309.2c-3.7-3.7-5.8-8.6-5.8-13.9 c0-5.2,2-10.2,5.8-13.9c0.2-0.2,0.4-0.4,0.6-0.6l0.2-0.1c7.7-7,19.6-6.6,27,0.8l65.9,65.9c5.6,5.6,8.6,13,8.6,20.8V426h-78.6 v-4.6c0-7.8-3.1-15.4-8.6-20.8L32.8,339.2z M201,487.9H83.1v-42.2H201V487.9z"></path> </g> </g> </g> <g> <g> <g> <path fill="#FF5F82" d="M256,4.5c-81.3,0-147.4,66.1-147.4,147.4S174.7,299.2,256,299.2s147.4-66.1,147.4-147.4 S337.3,4.5,256,4.5z M256,279.6c-70.4,0-127.7-57.3-127.7-127.7S185.6,24.1,256,24.1s127.7,57.3,127.7,127.7 S326.4,279.6,256,279.6z"></path> </g> </g> </g> <g> <g> <g> <path fill="#FF5F82" d="M323.8,67.7c-25.6-20.6-59-28.4-91.8-21.4c-5.3,1.1-8.7,6.4-7.5,11.7c1.1,5.3,6.4,8.7,11.7,7.5 c26.9-5.8,54.4,0.6,75.3,17.4c20.9,16.9,32.9,42,32.9,68.8c0,48.8-39.7,88.4-88.4,88.4s-88.4-39.7-88.4-88.4 c0-14.6,3.6-29,10.5-41.7c2.6-4.8,0.8-10.7-4-13.3c-4.8-2.6-10.7-0.8-13.3,4c-8.4,15.6-12.8,33.2-12.8,51 c0,59.6,48.5,108.1,108.1,108.1s108.1-48.5,108.1-108.1C364.1,119,349.4,88.4,323.8,67.7z"></path> </g> </g> </g> <path opacity="0.15" fill="#FF5F82" d="M256,17.3c-0.1,0-0.2,0-0.3,0v269.1c0.1,0,0.2,0,0.3,0c74.2,0,134.6-60.4,134.6-134.6 S330.2,17.3,256,17.3z"></path> </g> </svg> 