<?xml version="1.0" encoding="UTF-8"?> <!-- Generator: Adobe Illustrator 18.0.0, SVG Export Plug-In . SVG Version: 6.00 Build 0) --> <svg xmlns="http://www.w3.org/2000/svg" xmlns:xlink="http://www.w3.org/1999/xlink" id="Capa_1" x="0px" y="0px" viewBox="0 0 512 512" xml:space="preserve"> <g> <path fill="#FF5F82" d="M483.6,38.1h-295v-8.4c0-14-11.3-25.3-25.3-25.3H28.5c-14,0-25.3,11.3-25.3,25.3v455.1 c0,14,11.3,25.3,25.3,25.3h455.1c14,0,25.3-11.3,25.3-25.3V63.4C508.9,49.4,497.6,38.1,483.6,38.1z M20.1,29.7 c0-4.7,3.8-8.4,8.4-8.4h134.8c4.7,0,8.4,3.8,8.4,8.4v8.4H20.1V29.7z M492,484.8c0,4.7-3.8,8.4-8.4,8.4H28.5c-4.7,0-8.4-3.8-8.4-8.4 V55h463.5c4.7,0,8.4,3.8,8.4,8.4V484.8z"></path> <path fill="#FF5F82" d="M264.5,358.4H112.8c-14,0-25.3,11.3-25.3,25.3v50.6c0,14,11.3,25.3,25.3,25.3h151.7 c14,0,25.3-11.3,25.3-25.3v-50.6C289.7,369.7,278.4,358.4,264.5,358.4z M272.9,434.2c0,4.7-3.8,8.4-8.4,8.4H112.8 c-4.7,0-8.4-3.8-8.4-8.4v-50.6c0-4.7,3.8-8.4,8.4-8.4h151.7c4.7,0,8.4,3.8,8.4,8.4V434.2z"></path> <path fill="#FF5F82" d="M226,272.6c1.4,1,3.1,1.5,4.8,1.5c1,0,2-0.2,3-0.5l67.4-25.3c3.3-1.2,5.5-4.4,5.5-7.9s-2.2-6.7-5.5-7.9 l-67.4-25.3c-2.6-1-5.5-0.6-7.8,1c-2.3,1.6-3.6,4.2-3.6,6.9v50.6C222.3,268.4,223.7,271,226,272.6z M239.2,227.3l35,13.1l-35,13.1 V227.3z"></path> <path fill="#FF5F82" d="M424.6,156.1H87.5v168.6h337.1V156.1z M407.7,307.8H104.3V173h303.4V307.8z"></path> <path fill="#FF5F82" d="M112.8,139.2h16.9c14,0,25.3-11.3,25.3-25.3V97.1c0-14-11.3-25.3-25.3-25.3h-16.9 c-14,0-25.3,11.3-25.3,25.3V114C87.5,127.9,98.8,139.2,112.8,139.2z M104.3,97.1c0-4.7,3.8-8.4,8.4-8.4h16.9c4.7,0,8.4,3.8,8.4,8.4 V114c0,4.7-3.8,8.4-8.4,8.4h-16.9c-4.7,0-8.4-3.8-8.4-8.4V97.1z"></path> <path fill="#FF5F82" d="M188.6,139.2h101.1c9.3,0,16.9-7.5,16.9-16.9v-16.9c0-9.3-7.5-16.9-16.9-16.9H188.6 c-9.3,0-16.9,7.5-16.9,16.9v16.9C171.8,131.7,179.3,139.2,188.6,139.2z M188.6,105.5h101.1v16.9H188.6V105.5z"></path> <path opacity="0.15" fill="#FF5F82" d="M407.7,307.8H358V173h49.8V307.8z"></path> <path opacity="0.15" fill="#FF5F82" d="M262.4,105.5h27.3v16.9h-27.3V105.5z"></path> <path fill="#FF5F82" d="M433,400.5H315c-4.7,0-8.4,3.8-8.4,8.4s3.8,8.4,8.4,8.4h118c4.7,0,8.4-3.8,8.4-8.4S437.7,400.5,433,400.5z"></path> <path fill="#FF5F82" d="M433,366.8H315c-4.7,0-8.4,3.8-8.4,8.4c0,4.7,3.8,8.4,8.4,8.4h118c4.7,0,8.4-3.8,8.4-8.4 C441.4,370.6,437.7,366.8,433,366.8z"></path> <path fill="#FF5F82" d="M433,434.2H315c-4.7,0-8.4,3.8-8.4,8.4s3.8,8.4,8.4,8.4h118c4.7,0,8.4-3.8,8.4-8.4S437.7,434.2,433,434.2z"></path> <path fill="#FF5F82" d="M186.1,386.1c-3.3-3.2-8.6-3.1-11.8,0.1c-3.3,3.3-3.3,8.5-0.1,11.8l10.9,10.9l-10.9,10.9 c-2.2,2.1-3.1,5.3-2.3,8.2c0.8,2.9,3.1,5.2,6,6c2.9,0.8,6.1-0.1,8.2-2.3l16.9-16.9c3.3-3.3,3.3-8.6,0-11.9L186.1,386.1z"></path> <path fill="#FF5F82" d="M129.6,206.7h33.7c4.7,0,8.4-3.8,8.4-8.4s-3.8-8.4-8.4-8.4h-33.7c-4.7,0-8.4,3.8-8.4,8.4 S125,206.7,129.6,206.7z"></path> <path opacity="0.15" fill="#FF5F82" d="M162.6,21.3h-31.1v16.9H171v-8.4C171,25,167.2,21.3,162.6,21.3z"></path> <path opacity="0.15" fill="#FF5F82" d="M482.8,55H450v438.2h32.8c4.7,0,8.4-3.8,8.4-8.4V63.4C491.2,58.7,487.5,55,482.8,55z"></path> <path opacity="0.15" fill="#FF5F82" d="M129.6,88.7h-8.4v33.7h8.4c4.7,0,8.4-3.8,8.4-8.4V97.1C138.1,92.5,134.3,88.7,129.6,88.7z"></path> <path opacity="0.15" fill="#FF5F82" d="M264.5,375.2H235v67.4h29.5c4.7,0,8.4-3.8,8.4-8.4v-50.6C272.9,379,269.1,375.2,264.5,375.2 z"></path> </g> </svg> 