<?xml version="1.0" encoding="UTF-8"?> <!-- Generator: Adobe Illustrator 18.0.0, SVG Export Plug-In . SVG Version: 6.00 Build 0) --> <svg xmlns="http://www.w3.org/2000/svg" xmlns:xlink="http://www.w3.org/1999/xlink" id="Capa_1" x="0px" y="0px" viewBox="0 0 512 512" xml:space="preserve"> <g> <path fill="#FF5F82" d="M346.6,486.7h-80.1v-23.3c0-5.7-4.6-10.3-10.3-10.3c-5.7,0-10.3,4.6-10.3,10.3v23.3H166 c-5.7,0-10.3,4.6-10.3,10.3s4.6,10.3,10.3,10.3h180.7c5.7,0,10.3-4.6,10.3-10.3C356.9,491.3,352.3,486.7,346.6,486.7z"></path> <path fill="#FF5F82" d="M240.7,291c-25.7,6-45.6,27.2-49.6,53.7h-41c4.2-15.5,18.4-26.9,35.2-26.9c5.7,0,10.3-4.6,10.3-10.3 c0-5.7-4.6-10.3-10.3-10.3c-28.2,0-51.7,20.5-56.2,47.4H48.2c-1-0.3-2-0.5-3.1-0.5c-5.7,0-10.3,4.6-10.3,10.3v55.9 c0,12.9,10.6,23.5,23.5,23.5h396.1c12.9,0,23.5-10.6,23.5-23.5V137.7c0-12.9-10.6-23.5-23.5-23.5H343.6c-5.7,0-10.3,4.6-10.3,10.3 c0,5.7,4.6,10.3,10.3,10.3h110.8c1.7,0,3,1.3,3,3v272.7c0,1.7-1.3,3-3,3H58.3c-1.7,0-3-1.3-3-3v-45.2h330.5 c5.7,0,10.3-4.6,10.3-10.3s-4.6-10.3-10.3-10.3h-4.3c-4.6-26.9-28.1-47.4-56.2-47.4c-5.7,0-10.3,4.6-10.3,10.3s4.6,10.3,10.3,10.3 c16.9,0,31,11.4,35.2,26.9h-40.8c-4.4-29.4-28.6-52.4-58.4-55.1C248.9,288.9,240.7,291,240.7,291z M255.4,309.9 c21.2,0,38.9,14.9,43.4,34.8H212C216.4,324.8,234.2,309.9,255.4,309.9z"></path> <path fill="#FF5F82" d="M179.8,124.5c0-5.7-4.6-10.3-10.3-10.3H58.3c-12.9,0-23.5,10.6-23.5,23.5v178.9c0,5.7,4.6,10.3,10.3,10.3 c5.7,0,10.3-4.6,10.3-10.3V137.7c0-1.7,1.3-3,3-3h111.2C175.3,134.7,179.8,130.2,179.8,124.5z"></path> <path fill="#FF5F82" d="M244.2,247.5v44.2c0,5.5,4.1,10.4,9.6,10.7c5.9,0.3,10.9-4.4,10.9-10.3v-44.6c0-5.7-4.6-10.3-10.3-10.3l0,0 C248.7,237.3,244.2,241.8,244.2,247.5z"></path> <path fill="#FF5F82" d="M331.9,200.2l-15.8-25c-1.6-2.4-2.3-5.2-2.3-8V85.3c0-12.4-4.5-24.4-12.6-33.9L263.2,7.5 c-2-2.3-4.8-3.5-7.8-3.5s-5.8,1.3-7.8,3.6l-37.5,43.9c-8,9.4-12.4,21.3-12.4,33.7v81.4c0,3.1-0.9,6-2.7,8.5l-16.9,24.3 c-4.4,6.2-6.6,13.5-6.6,21v19.8c0,5.7,4.6,10.3,10.3,10.3l18.6,0.1v19.8c0,5.7,4.6,10.3,10.3,10.3c5.7,0,10.3-4.6,10.3-10.3v-19.8 l0.1-0.1c0.1,0,0.2-0.1,0.4-0.1h62.8v19.9c0,5.7,4.7,10.3,10.3,10.3c5.7,0,10.3-4.6,10.3-10.3v-19.8h22.6c5.7,0,10.3-4.6,10.3-10.3 v-20.4C337.6,212.9,335.6,206.1,331.9,200.2z M192.1,220.5c0-3.3,1-6.5,2.9-9.3l16.9-24.3c4.1-6,6.3-12.9,6.3-20.3V85.2 c0-7.5,2.7-14.7,7.5-20.3l30-34.9l30,34.8c4.9,5.7,7.6,12.9,7.6,20.4v81.9c0,6.7,1.9,13.3,5.5,19l15.8,25c1.7,2.6,2.5,5.6,2.5,8.7 v10.2l-125,0.1V220.5z"></path> <path opacity="0.15" fill="#FF5F82" d="M317,230l-36.8-0.1l0-10.1c0-6.9-1.9-13.8-5.6-19.7l-15.8-25c-1.5-2.4-2.3-5.2-2.2-8 l0.3-81.9c0-12.4-4.4-24.5-12.5-33.9l-3.3-3.8l15.2-17.6l29.9,34.9c4.8,5.7,7.5,13,7.5,20.4l-0.3,81.9c0,6.7,1.8,13.3,5.4,19 l15.8,25c1.6,2.6,2.5,5.6,2.5,8.7L317,230z"></path> <g opacity="0.15"> <path fill="#FF5F82" d="M454.4,114.2h-41.8v319.6h41.8c12.9,0,23.5-10.6,23.5-23.5V137.7C477.9,124.8,467.4,114.2,454.4,114.2z"></path> </g> <path opacity="0.15" fill="#FF5F82" d="M256.4,344.7h43.4c-4.5-19.9-22.2-34.8-43.4-34.8V344.7z"></path> </g> </svg> 