<?xml version="1.0" encoding="UTF-8"?> <!-- Generator: Adobe Illustrator 18.0.0, SVG Export Plug-In . SVG Version: 6.00 Build 0) --> <svg xmlns="http://www.w3.org/2000/svg" xmlns:xlink="http://www.w3.org/1999/xlink" id="Capa_1" x="0px" y="0px" viewBox="0 0 512 512" xml:space="preserve"> <g> <g> <g> <path fill="#FF5F82" d="M107.5,359.3c-1.8-1.8-4.4-2.9-7-2.9s-5.1,1.1-7,2.9c-1.8,1.8-2.9,4.4-2.9,7s1.1,5.1,2.9,7 c1.8,1.8,4.4,2.9,7,2.9s5.1-1.1,7-2.9c1.8-1.8,2.9-4.4,2.9-7S109.3,361.1,107.5,359.3z"></path> </g> </g> <g> <g> <path fill="#FF5F82" d="M398.7,274.6c-1.8-1.8-4.4-2.9-7-2.9c-2.6,0-5.1,1.1-7,2.9c-1.8,1.8-2.9,4.4-2.9,7c0,2.6,1.1,5.1,2.9,7 c1.8,1.8,4.4,2.9,7,2.9c2.6,0,5.1-1.1,7-2.9c1.8-1.8,2.9-4.4,2.9-7C401.6,279,400.6,276.5,398.7,274.6z"></path> </g> </g> <g> <g> <path fill="#FF5F82" d="M352.4,86.8H139.9c-5.4,0-9.8,4.4-9.8,9.8v63c0,5.4,4.4,9.8,9.8,9.8h212.5c5.4,0,9.8-4.4,9.8-9.8v-63 C362.3,91.2,357.9,86.8,352.4,86.8z M342.6,149.7H149.7v-43.3h192.9V149.7z"></path> </g> </g> <g> <g> <path fill="#FF5F82" d="M352.4,197h-48.2c-5.4,0-9.8,4.4-9.8,9.8c0,5.4,4.4,9.8,9.8,9.8h48.2c5.4,0,9.8-4.4,9.8-9.8 C362.3,201.4,357.9,197,352.4,197z"></path> </g> </g> <g> <g> <path fill="#FF5F82" d="M499.8,428.3L324.3,252.8c-1-1-2.2-1.7-3.4-2.2L227.7,215c-3.6-1.4-7.7-0.5-10.5,2.2 c-2.7,2.7-3.6,6.8-2.2,10.5l24.3,63.7h-89.6v-74.8h48.2c5.4,0,9.8-4.4,9.8-9.8c0-5.4-4.4-9.8-9.8-9.8h-58.1 c-5.4,0-9.8,4.4-9.8,9.8v94.5c0,5.4,4.4,9.8,9.8,9.8h106.9l3.7,9.8c0.5,1.3,1.3,2.5,2.2,3.4l14.3,14.3H139.9 c-5.4,0-9.8,4.4-9.8,9.8c0,5.4,4.4,9.8,9.8,9.8h146.9l27.6,27.6H139.9c-5.4,0-9.8,4.4-9.8,9.8c0,5.4,4.4,9.8,9.8,9.8H334 l39.4,39.4H109.5c-4.6-24.6-26.3-43.3-52.2-43.3c-12.7,0-24.3,4.5-33.5,11.9V57.3c0-18.4,15-33.5,33.5-33.5s33.5,15,33.5,33.5 v266.3c0,5.4,4.4,9.8,9.8,9.8s9.8-4.4,9.8-9.8V67.1h261.7c5.4,0,9.8,4.4,9.8,9.8v169.5c0,5.4,4.4,9.8,9.8,9.8s9.8-4.4,9.8-9.8 V76.9c0-16.3-13.2-29.5-29.5-29.5H109.4C104.8,22.8,83.2,4.1,57.2,4.1C27.9,4.1,4.1,28,4.1,57.3v397.5 c0,29.3,23.8,53.1,53.1,53.1h261.2c16.3,0,29.5-13.2,29.5-29.5v-13.8h43.8c0.4,0,0.8,0,1.2-0.1l35.3,35.3c5.4,5.4,12.4,8,19.4,8 s14.1-2.7,19.4-8l32.6-32.6c5.2-5.2,8.1-12.1,8.1-19.4C507.9,440.4,505,433.5,499.8,428.3z M328.3,478.4c0,5.4-4.4,9.8-9.8,9.8 H57.2c-18.4,0-33.5-15-33.5-33.5s15-33.5,33.5-33.5s33.5,15,33.5,33.5c0,5.4,4.4,9.8,9.8,9.8h227.7V478.4z M263.5,299.7 l-22.3-58.4l58.4,22.3L263.5,299.7z M273.7,317.4l43.7-43.7L449.7,406L406,449.7L273.7,317.4z M485.9,453.3l-32.6,32.6 c-3.1,3.1-8,3.1-11.1,0l-22.3-22.3l43.7-43.7l22.3,22.3c1.5,1.5,2.3,3.4,2.3,5.5C488.2,449.9,487.4,451.8,485.9,453.3z"></path> </g> </g> <path opacity="0.15" fill="#FF5F82" d="M328.3,493.3c0,5.4-4.4,9.8-9.8,9.8H57.2c-18.4,0-33.5-15-33.5-33.5 c0-18.4,15-33.5,33.5-33.5s33.5,15,33.5,33.5c0,5.4,4.4,9.8,9.8,9.8h227.7V493.3z"></path> <g opacity="0.15"> <path fill="#FF5F82" d="M469.6,469.7l16.4-16.4c1.5-1.5,2.3-3.4,2.3-5.5c0-2.1-0.8-4.1-2.3-5.5l-22.3-22.3l-21.9,21.9L469.6,469.7 z"></path> <polygon fill="#FF5F82" points="281.3,281.9 299.7,263.5 241.2,241.2 241.7,242.5 "></polygon> <polygon fill="#FF5F82" points="427.7,428 449.7,406 317.4,273.7 295.2,295.8 "></polygon> </g> </g> </svg> 