<?xml version="1.0" encoding="UTF-8"?> <!-- Generator: Adobe Illustrator 18.0.0, SVG Export Plug-In . SVG Version: 6.00 Build 0) --> <svg xmlns="http://www.w3.org/2000/svg" xmlns:xlink="http://www.w3.org/1999/xlink" id="Capa_1" x="0px" y="0px" viewBox="0 0 512 512" xml:space="preserve"> <g> <path opacity="0.15" fill="#FF5F82" d="M411.3,466.2c-8.3-16.8-22.3-28.5-31.8-34.8c-0.9-0.6-1.9-0.7-2.9-0.4 c-27.7,10.2-123.1,43.7-189.7,47.3c-1.7,0.1-3.1,1.6-3.1,3.5v7.1C227,489.8,309.2,487.7,411.3,466.2z"></path> <path opacity="0.15" fill="#FF5F82" d="M146.8,201.5c-7.6-15.4-12.6-32.1-14.5-49.7H87.4c-2,2.3-3.7,4.4-5.2,6.4 c-5.4,7.5-14,21.7-21.3,43.3H146.8z"></path> <g> <path fill="#FF5F82" d="M382.2,424.2c-4.6-2.9-10.2-3.6-15.4-1.8c-2.1,0.7-4.1,1.4-6.1,2.1L340.3,394c-2.3-3.4-6.9-4.3-10.2-2 c-3.4,2.3-4.3,6.9-2,10.2l18.2,27c-64.2,20.8-109.3,28.9-133.6,32l-42.2-73.5c-1.3-2.3-3.7-3.7-6.3-3.7l-58.5-0.6 c-1.7,0-3-1.4-3-3.1v-25.2c0.1,0,0.3,0,0.4,0c13.7,0,40.8-2,56.8-16.8c8.5-7.8,12.8-18,12.8-30.2c0-4.1-3.3-7.4-7.4-7.4 s-7.4,3.3-7.4,7.4c0,8-2.6,14.4-8,19.4c-6.8,6.2-18.1,10.4-32.7,12.1c-5.6,0.6-10.7,0.8-14.6,0.8v-36.2c0-4.1-3.3-7.4-7.4-7.4 H59.5c-1.7,0-3-1.3-3.1-3c-2.8-75.4,18.9-116.7,28.4-130.9c1.2-1.8,2.6-3.7,4.3-5.7H126c5,50.8,37.2,93.8,81.9,114v43.7 c0,7.7,4.9,14.5,12.2,16.9l70.1,23.5c1.8,0.6,3.6,0.9,5.4,0.9c0.7,0,1.3,0,2-0.1c0.4,1.1,1,2.1,1.7,3.1l10.6,15.8 c1.4,2.1,3.8,3.2,6.1,3.2c1.4,0,2.8-0.4,4.1-1.3c3.4-2.3,4.3-6.9,2-10.2l-10.6-15.8c-0.3-0.5-0.4-1.1-0.3-1.6l13.4-78.5 c9.8-4.5,19.2-10.3,27.9-17.1c3.2-2.5,3.8-7.2,1.2-10.4c-2.5-3.2-7.2-3.8-10.4-1.2c-22.3,17.5-49.1,26.8-77.6,26.8 c-69.3,0-125.6-56.3-125.6-125.6c0-69.3,56.4-125.6,125.6-125.6c21.2,0,42.1,5.4,60.5,15.5c3.6,2,8.1,0.7,10-2.9 c2-3.6,0.7-8-2.9-10c-20.6-11.4-44-17.4-67.6-17.4c-26.5,0-51.3,7.4-72.5,20.2h-154c-9.8,0-17.8,8-17.8,17.8v52.2 c0,30.7,21.7,56.3,50.5,62.5c-30.2,46.3-31.2,112.3-30.2,138.6c0.4,9.6,8.2,17.2,17.8,17.2h28.3v68.8c0,9.7,7.9,17.7,17.6,17.8 l54.3,0.5l36.8,64.1c-1.5,0.1-2.6,0.2-3.5,0.2c-9.5,0.5-16.9,8.3-16.9,17.8v7.6c0,9.8,8,17.8,17.8,17.8h213.5 c5,0,9.7-2.1,13.1-5.7c3.4-3.7,5.1-8.6,4.7-13.6C422.6,454.2,397.2,433.5,382.2,424.2z M308.4,277.3l-10.7,62.4c0,0,0,0,0,0.1 c-0.2,0.9-0.7,1.3-1.1,1.5c-0.3,0.2-1,0.5-1.9,0.2L224.7,318c-1.3-0.4-2.1-1.6-2.1-2.9v-38c13.6,4.4,28,6.8,43,6.8 C280.4,283.9,294.7,281.6,308.4,277.3z M36.1,93.4V41.2c0-1.7,1.4-3.1,3.1-3.1h133.9C144,63.7,125.6,101,125.3,142.6h-40 C58.2,142.6,36.1,120.6,36.1,93.4z M409.8,490.6c-0.3,0.4-1.1,1-2.2,1H194c-1.7,0-3.1-1.4-3.1-3.1V481c0-1.6,1.3-3,2.9-3.1 c62.5-3.1,151.9-32.6,177.9-41.6c0.9-0.3,1.9-0.2,2.7,0.3c12.6,7.9,34,25.1,36.2,51.6C410.7,489.5,410.1,490.3,409.8,490.6z"></path> <path fill="#FF5F82" d="M120.9,223.3c-0.8,1.5-2.3,2.5-4,2.5c-1.7,0-3.2-1-4-2.5c-1.8-3.7-6.2-5.2-9.9-3.4 c-3.7,1.8-5.2,6.2-3.4,9.9c3.3,6.6,9.9,10.7,17.2,10.7c7.4,0,14-4.1,17.2-10.7c1.8-3.7,0.3-8.1-3.4-9.9 C127.1,218.1,122.7,219.6,120.9,223.3z"></path> <path fill="#FF5F82" d="M477.9,164.3h-71.3l-1.9-2c0.8-6.2,1.3-12.5,1.3-18.8c0-8.2-0.7-16.5-2.2-24.6l2.8-2.9h71.3 c10.5,0,19-8.5,19-19c0-10.5-8.5-19-19-19h-79.4c-2.7,0-5.4,0.6-7.8,1.7c-7.5-14.7-17.4-27.8-29.6-39.1c-3-2.8-7.6-2.6-10.4,0.4 c-2.8,3-2.6,7.6,0.4,10.4c11.8,11,21.3,23.8,28.1,38.3l-21.7,22.8l-34.2-36.1c-3.6-3.8-8.6-5.9-13.8-5.9h-45.5V60.2 c0-5.5-3-10.4-7.9-12.9c-4.9-2.5-10.7-2-15.1,1.2l-40.2,29.4c-3.7,2.7-5.9,7.1-5.9,11.7s2.2,9,5.9,11.7l40.2,29.4 c2.5,1.9,5.5,2.8,8.5,2.8c2.2,0,4.5-0.5,6.6-1.6c4.9-2.5,7.9-7.4,7.9-12.9v-10.4h37.4l30,31.6l-30,31.6h-37.4v-10.4 c0-5.5-3-10.4-7.9-12.9c-4.9-2.5-10.7-2-15.1,1.2l-40.2,29.4c-3.7,2.7-5.9,7.1-5.9,11.7s2.2,9,5.9,11.7l40.2,29.4 c2.5,1.9,5.5,2.8,8.5,2.8c2.2,0,4.5-0.5,6.6-1.6c4.9-2.5,7.9-7.4,7.9-12.9v-10.4h45.5c5.2,0,10.2-2.2,13.8-5.9l34.2-36.1l23.7,25 c-4.1,9.5-9.3,18.6-15.6,26.9c-2.5,3.2-1.8,7.9,1.4,10.3c1.3,1,2.9,1.5,4.5,1.5c2.2,0,4.4-1,5.9-2.9c6.4-8.4,11.8-17.4,16.1-26.9 c1.6,0.5,3.3,0.7,5.1,0.7h79.4c10.5,0,19-8.5,19-19C496.9,172.9,488.4,164.3,477.9,164.3z M249.2,118.4l-39.4-28.8l39.4-28.8 V118.4z M249.2,219.6l-39.4-28.8l39.4-28.8V219.6z M391.3,143.5c0,1.5,0,3-0.1,4.5l-7.5-7.9l7.1-7.5 C391.1,136.3,391.3,139.9,391.3,143.5z M395.4,94.1c0.8-0.8,1.9-1.3,3.1-1.3h79.4c2.3,0,4.3,1.9,4.3,4.3c0,2.3-1.9,4.3-4.3,4.3 h-74.4c-2,0-4,0.8-5.3,2.3l-24.6,25.9l-5.9-6.2L395.4,94.1z M312.6,193.7c-0.8,0.8-1.9,1.3-3.1,1.3h-45.5v-8.5h40.5 c2,0,4-0.8,5.3-2.3l31.6-33.3l5.9,6.2L312.6,193.7z M477.9,187.6h-79.4c-1.2,0-2.3-0.5-3.1-1.3l-85.5-90.1 c-1.4-1.5-3.3-2.3-5.3-2.3h-40.5v-8.5h45.5c1.2,0,2.3,0.5,3.1,1.3l85.5,90.1c1.4,1.5,3.3,2.3,5.3,2.3h74.4c2.3,0,4.3,1.9,4.3,4.3 C482.1,185.7,480.2,187.6,477.9,187.6z"></path> <path fill="#FF5F82" d="M418,244h5.1c4.1,0,7.4-3.3,7.4-7.4c0-4.1-3.3-7.4-7.4-7.4H418c-4.1,0-7.4,3.3-7.4,7.4 C410.6,240.7,413.9,244,418,244z"></path> <path fill="#FF5F82" d="M484.3,229.3h-41.6c-4.1,0-7.4,3.3-7.4,7.4c0,4.1,3.3,7.4,7.4,7.4h41.6c4.1,0,7.4-3.3,7.4-7.4 C491.7,232.6,488.4,229.3,484.3,229.3z"></path> <path fill="#FF5F82" d="M484.3,253.8H418c-4.1,0-7.4,3.3-7.4,7.4c0,4.1,3.3,7.4,7.4,7.4h66.4c4.1,0,7.4-3.3,7.4-7.4 C491.7,257.1,488.4,253.8,484.3,253.8z"></path> <path fill="#FF5F82" d="M484.3,278.4H418c-4.1,0-7.4,3.3-7.4,7.4c0,4.1,3.3,7.4,7.4,7.4h66.4c4.1,0,7.4-3.3,7.4-7.4 C491.7,281.7,488.4,278.4,484.3,278.4z"></path> </g> <path opacity="0.15" fill="#FF5F82" d="M35.4,41.2v27.3h111.1c7.2-11.3,15.8-21.6,25.8-30.4H38.4C36.7,38.1,35.4,39.5,35.4,41.2z"></path> <path opacity="0.15" fill="#FF5F82" d="M223.3,296l78.9,21.4l6.9-40.1c-13.6,4.3-28,6.6-42.7,6.6c-15,0-29.5-2.4-43-6.8V296z"></path> </g> </svg> 