<?xml version="1.0" encoding="UTF-8"?> <!-- Generator: Adobe Illustrator 18.0.0, SVG Export Plug-In . SVG Version: 6.00 Build 0) --> <svg xmlns="http://www.w3.org/2000/svg" xmlns:xlink="http://www.w3.org/1999/xlink" id="Capa_1" x="0px" y="0px" viewBox="0 0 512 512" xml:space="preserve"> <g> <g> <g> <g> <path fill="#FF5F82" d="M179.3,45.9H331c4.7,0,8.4,3.8,8.4,8.4v0c0,4.7-3.8,8.4-8.4,8.4H179.3c-4.7,0-8.4-3.8-8.4-8.4v0 C170.9,49.7,174.6,45.9,179.3,45.9z"></path> </g> </g> <g> <g> <path fill="#FF5F82" d="M128.7,111c-0.2-2.4-1.4-4.7-3.3-6.1l-8.8-6.7c-2.1-10.6-11.4-18.7-22.6-18.7c-12.6,0-22.8,10.2-23,22.9 c-6.7-1.2-13.2-3.8-18.9-7.6l-2.9-2c-2.6-1.7-5.9-1.9-8.7-0.5c-2.7,1.5-4.5,4.3-4.5,7.4v6.9c0,10.2,3.1,19.8,8.7,28l-6.3,6.4 c-2.4,2.4-3.1,6-1.8,9.2c1.3,3.1,4.4,5.2,7.8,5.2h40.8c16.3,0,29.8-12.4,31.6-28.4l9.4-9.6C128,115.8,128.9,113.4,128.7,111z M102.6,117.5c-1.6,1.6-2.4,3.7-2.4,5.9c0,8.4-6.7,15.2-14.9,15.2H63.9c1.3-3.1,0.8-6.8-1.7-9.3c-3.9-4-6.7-9-8.2-14.4 c8,3.4,16.7,5.2,25.5,5.2c4.7,0,8.4-3.8,8.4-8.4v-8.8c0-3.5,2.8-6.3,6.2-6.3s6.2,2.8,6.2,6.3c0,2.6,1.2,5.1,3.3,6.7l4,3 L102.6,117.5z"></path> </g> </g> <g> <g> <path fill="#FF5F82" d="M280.4,147v-16.9h-25.3c-4.7,0-8.4,3.8-8.4,8.4v25.3h-16.9v16.9h16.9v33.7h16.9v-33.7h16.9v-16.9h-16.9 V147H280.4z"></path> </g> </g> <g> <g> <path fill="#FF5F82" d="M305.7,96.4H204.6c-13.9,0-25.3,11.3-25.3,25.3v101.1c0,13.9,11.3,25.3,25.3,25.3h101.1 c13.9,0,25.3-11.3,25.3-25.3V121.7C331,107.8,319.7,96.4,305.7,96.4z M314.2,222.9c0,4.6-3.8,8.4-8.4,8.4H204.6 c-4.7,0-8.4-3.8-8.4-8.4V121.7c0-4.6,3.8-8.4,8.4-8.4h101.1c4.7,0,8.4,3.8,8.4,8.4V222.9z"></path> </g> </g> <g> <g> <path fill="#FF5F82" d="M128.7,45.9H27.6c-13.9,0-25.3,11.3-25.3,25.3v101.1c0,13.9,11.3,25.3,25.3,25.3h101.1 c13.9,0,25.3-11.3,25.3-25.3V71.2C154,57.2,142.7,45.9,128.7,45.9z M137.2,172.3c0,4.6-3.8,8.4-8.4,8.4H27.6 c-4.7,0-8.4-3.8-8.4-8.4V71.2c0-4.6,3.8-8.4,8.4-8.4h101.1c4.7,0,8.4,3.8,8.4,8.4V172.3z"></path> </g> </g> <g> <g> <path fill="#FF5F82" d="M482.7,3.7H381.6c-13.9,0-25.3,11.3-25.3,25.3v101.1c0,13.9,11.3,25.3,25.3,25.3h101.1 c13.9,0,25.3-11.3,25.3-25.3V29C508,15.1,496.7,3.7,482.7,3.7z M491.2,130.2c0,4.6-3.8,8.4-8.4,8.4H381.6 c-4.7,0-8.4-3.8-8.4-8.4V88h17.7c3.9,19.2,20.9,33.7,41.3,33.7s37.4-14.5,41.3-33.7h17.7V130.2z M406.9,79.6 c0-13.9,11.3-25.3,25.3-25.3c13.9,0,25.3,11.3,25.3,25.3s-11.3,25.3-25.3,25.3C418.2,104.9,406.9,93.5,406.9,79.6z M491.2,71.2 h-17.7c-3.9-19.2-20.9-33.7-41.3-33.7S394.8,52,390.9,71.2h-17.7V29c0-4.6,3.8-8.4,8.4-8.4h101.1c4.7,0,8.4,3.8,8.4,8.4V71.2z"></path> </g> </g> <g> <g> <path fill="#FF5F82" d="M255.2,349.3L255.2,349.3c4.7,0,8.4,3.8,8.4,8.4v0c0,4.7-3.8,8.4-8.4,8.4h0c-4.7,0-8.4-3.8-8.4-8.4v0 C246.7,353.1,250.5,349.3,255.2,349.3z"></path> </g> </g> <path fill="#FF5F82" d="M419.5,361.9c0-8.1-3.3-15.5-8.7-20.8c-0.1-0.1-0.1-0.4,0-0.5c6.6-6.6,10.1-16.3,8.1-26.7 c-2.7-14.1-16-23.6-30.4-23.6h-15c-0.2,0-0.4-0.2-0.4-0.4V180.7c0-4.7-3.8-8.4-8.4-8.4c-4.7,0-8.4,3.8-8.4,8.4v109.2 c0,0.2-0.2,0.4-0.4,0.4h-19.2c-14.3,0-27.6,9.6-30.4,23.6c-2,10.4,1.5,20.1,8.1,26.7c0.1,0.1,0.1,0.4,0,0.5 c-5.3,5.3-8.7,12.7-8.7,20.8c0,5.5,1.6,10.7,4.3,15.1c0.1,0.2,0,0.4-0.2,0.5c-9.9,4.8-16.8,14.8-16.8,26.5c0,4.5,1.1,8.8,3,12.6 h-65.8c-0.2,0-0.4-0.2-0.4-0.4c-0.1-25.4-12.8-47.8-32.1-61.5c-0.2-0.2-0.2-0.5,0.1-0.6c18.6-7.4,31.9-25.6,32-46.8 c0-4.8-4-8.7-8.8-8.7c0,0-42.4,0-67,0v-75.9c0-4.7-3.8-8.4-8.4-8.4c-4.7,0-8.4,3.8-8.4,8.4v75.9c-0.1,0-0.4,0-0.4,0 c-13.8,0.2-24.9,11.5-24.9,25.3v166.6h0V501c0,4.7,3.8,8.4,8.4,8.4c4.7,0,8.4-3.8,8.4-8.4v-32.5h0V324.4c0-4.9,4-8.8,8.8-8.8h73.8 c0.3,0,0.5,0.3,0.4,0.5c-3.9,14.3-17,24.8-32.5,24.8H154c-4.7,0-8.4,3.8-8.4,8.4c0,4.7,3.8,8.4,8.4,8.4c32.5,0,59,26.5,59,59v8 c0,4.9,4,8.8,8.8,8.8h48.9c-1.8,3.8-3,8.1-3,12.6c0,16.1,13,29.3,29.1,29.5c0.2,0,0.4,0.2,0.4,0.4v14.5c0,0.1,0.1,0.1,0.2,0.2V501 c0,4.7,3.8,8.4,8.4,8.4c4.7,0,8.4-3.8,8.4-8.4v-25.1c0.1-0.1,0.1-0.2,0.2-0.2h33.3h2c14.1,0,27.5-9,30.9-22.7 c1.7-7,0.7-13.5-2-19.1c-0.1-0.2,0-0.5,0.3-0.5c15.5-0.9,27.8-13.7,27.8-29.4c0-5.5-1.6-10.7-4.3-15.1c-0.1-0.2,0-0.4,0.2-0.5 C412.6,383.7,419.5,373.6,419.5,361.9z M352.1,458.9h-4.2h-42.1h-8.4c-7,0-12.6-5.7-12.6-12.6c0-7,5.7-12.6,12.6-12.6h25.3h29.5 c7,0,12.6,5.7,12.6,12.6C364.7,453.2,359.1,458.9,352.1,458.9z M377.4,416.7h-25.3h-29.5c-7,0-12.6-5.7-12.6-12.6 c0-7,5.7-12.6,12.6-12.6h12.6h42.1c7,0,12.6,5.7,12.6,12.6C390,411.1,384.3,416.7,377.4,416.7z M390,374.6h-12.6h-42.1 c-7,0-12.6-5.7-12.6-12.6s5.7-12.6,12.6-12.6H390c7,0,12.6,5.7,12.6,12.6S397,374.6,390,374.6z M390,332.4h-54.8 c-7,0-12.6-5.7-12.6-12.6c0-7,5.7-12.6,12.6-12.6H390c7,0,12.6,5.7,12.6,12.6C402.7,326.8,397,332.4,390,332.4z"></path> </g> <g> <path opacity="0.15" fill="#FF5F82" d="M128.7,62.7H78.2v118h50.6c4.6,0,8.4-3.8,8.4-8.4V71.2C137.2,66.5,133.4,62.7,128.7,62.7z"></path> <path opacity="0.15" fill="#FF5F82" d="M482.7,20.6h-50.6v118h50.6c4.6,0,8.4-3.8,8.4-8.4V29C491.2,24.4,487.4,20.6,482.7,20.6z"></path> <path opacity="0.15" fill="#FF5F82" d="M390,307.2h-27.6v25.3H390c7,0,12.6-5.7,12.6-12.6C402.7,312.8,397,307.2,390,307.2z"></path> <path opacity="0.15" fill="#FF5F82" d="M390,349.3h-27.6v25.3h14.9H390c7,0,12.6-5.7,12.6-12.6S397,349.3,390,349.3z"></path> <path opacity="0.15" fill="#FF5F82" d="M377.4,391.4h-29.8v25.3h4.5h25.3c7,0,12.6-5.7,12.6-12.6 C390,397.1,384.3,391.4,377.4,391.4z"></path> <path opacity="0.15" fill="#FF5F82" d="M352.1,433.6h-28.3v25.3h24.1h4.2c7,0,12.6-5.7,12.6-12.6 C364.7,439.3,359.1,433.6,352.1,433.6z"></path> <path opacity="0.15" fill="#FF5F82" d="M305.7,113.3h-50.6v118h50.6c4.6,0,8.4-3.8,8.4-8.4V121.7 C314.2,117.1,310.4,113.3,305.7,113.3z"></path> </g> </g> </svg> 