<?xml version="1.0" encoding="UTF-8"?> <!-- Generator: Adobe Illustrator 18.0.0, SVG Export Plug-In . SVG Version: 6.00 Build 0) --> <svg xmlns="http://www.w3.org/2000/svg" xmlns:xlink="http://www.w3.org/1999/xlink" id="Capa_1" x="0px" y="0px" viewBox="0 0 512 512" xml:space="preserve"> <g> <g> <path opacity="0.15" fill="#FF5F82" d="M70.2,211.3v88c24.3,0,44-19.7,44-44C114.2,231.1,94.5,211.3,70.2,211.3z"></path> <path opacity="0.15" fill="#FF5F82" d="M444.1,211.3v88c24.3,0,44-19.7,44-44C488.1,231.1,468.4,211.3,444.1,211.3z"></path> <path opacity="0.15" fill="#FF5F82" d="M256.9,23.1v87.7c23.7-0.6,42.9-20,42.9-43.9C299.8,43.1,280.6,23.7,256.9,23.1z"></path> <path opacity="0.15" fill="#FF5F82" d="M256.9,399.8v87.7c23.7-0.6,42.9-20,42.9-43.9C299.8,419.8,280.6,400.4,256.9,399.8z"></path> <g opacity="0.15"> <path fill="#FF5F82" d="M256.9,200.1c2.2-0.5,4.4-1.2,6.4-2.6l2.9-2.1c13.1-9.4,30.5-9.1,43.3,0.6c0,0,0,0,0.1,0l7.2,5.5 c-2.3-19.5-18-34.2-37.7-34.2h-22.2V200.1z"></path> <path fill="#FF5F82" d="M297.6,211.8c-4.2-3.2-9.7-4.2-14.8-2.8c-3,0.9-5.4,2.7-8,4.5c-4.3,3.1-9.3,5.2-14.6,6.2 c-1.1,0.2-2.2,0.2-3.4,0.3v122.5c6.6-0.2,13.2-1.4,19.4-3.7c11.8-4.3,22.1-12.2,29.3-22.4c7.4-10.5,11.5-23.1,11.5-35.9v-53.9 L297.6,211.8z"></path> </g> </g> <g> <path fill="#FF5F82" d="M62.8,128.4c1.8,1.3,3.8,1.9,5.8,1.9c3.1,0,6.1-1.4,8-4.1c15.1-20.7,33.4-38.5,54.6-52.9 c4.5-3.1,5.7-9.3,2.6-13.8s-9.3-5.7-13.8-2.6C97,72.6,77,91.9,60.6,114.5C57.4,118.9,58.3,125.2,62.8,128.4z"></path> <path fill="#FF5F82" d="M335.8,213.2v-6.7c0-16-6-30.8-16.9-41.9c-10.9-11.1-25.4-17.2-41-17.2h-48.3c-31.9,0-57.8,25.9-57.8,57.8 v7.9c-15.1,4.3-26.1,18.2-26.1,34.7c0,16.5,11.1,30.4,26.2,34.7c1.1,44.3,37.4,80,82,80s80.9-35.7,82-80 c15.1-4.3,26.2-18.2,26.2-34.7C361.9,231.4,350.8,217.5,335.8,213.2z M229.6,167.3h48.3c19.6,0,35.4,14.7,37.7,34.2l-7.2-5.5 c0,0,0,0-0.1,0c-12.8-9.7-30.2-9.9-43.3-0.6l-2.9,2.1c-5.9,4.2-13.8,4.2-19.6-0.1c-14.2-10.4-33.7-9.3-46.5,2.6l-4.2,3.1 C192.8,183.2,209.4,167.3,229.6,167.3z M165.5,247.9c0-5.2,2.5-9.8,6.3-12.8v25.6C168,257.7,165.5,253.1,165.5,247.9z M315.9,280.5c0,12.8-4,25.5-11.5,35.9c-7.3,10.2-17.6,18.1-29.3,22.4c-12.2,4.5-25.8,5-38.3,1.4c-12-3.4-22.9-10.6-30.8-20.2 c-8.1-9.8-13.1-22-14.1-34.7c-0.1-1.6-0.2-3.2-0.2-4.9V228l16.6-12.4c1.7-1.3,3.3-2.8,5.2-3.8c2.1-1,4.4-1.6,6.6-1.7 c2.2-0.1,4.5,0.3,6.6,1.1c2.1,0.8,3.8,2.1,5.7,3.3c7.8,5.1,17.5,7,26.7,5.3c5.2-1,10.2-3.1,14.6-6.2c2.5-1.8,4.9-3.7,8-4.5 c5.1-1.5,10.6-0.4,14.8,2.8l19.5,14.8V280.5z M335.8,260.7v-25.6c3.8,3,6.3,7.6,6.3,12.8C342,253.1,339.6,257.7,335.8,260.7z"></path> <path fill="#FF5F82" d="M268.5,295l-1.8,1.4c-8.1,6.3-19.4,5.9-27-0.9c-4.1-3.7-10.4-3.3-14,0.8c-1.7,1.9-2.5,4.3-2.5,6.6 c0,2.7,1.1,5.4,3.3,7.4c4.9,4.4,10.6,7.4,16.7,9.1c3.5,0.9,7.1,1.4,10.7,1.4c8.9,0,17.7-2.9,25.1-8.6h0l1.8-1.4 c2.5-2,3.8-4.9,3.8-7.8c0-2.1-0.7-4.3-2.1-6.1C279,292.4,272.8,291.6,268.5,295z"></path> <path fill="#FF5F82" d="M241,249.8c0-5.5-4.4-9.9-9.9-9.9h-13.2c-5.5,0-9.9,4.4-9.9,9.9c0,5.5,4.4,9.9,9.9,9.9H231 C236.5,259.8,241,255.3,241,249.8z"></path> <path fill="#FF5F82" d="M285.8,239.9h-13.2c-5.5,0-9.9,4.4-9.9,9.9c0,5.5,4.4,9.9,9.9,9.9h13.2c5.5,0,9.9-4.4,9.9-9.9 C295.7,244.4,291.3,239.9,285.8,239.9z"></path> <path fill="#FF5F82" d="M442.9,191.5c-0.2,0-0.4,0-0.6,0c-9.7-28.6-26.1-54.8-47.5-76.3c-21.5-21.5-47.8-37.9-76.4-47.6 c0-0.2,0-0.4,0-0.6c0-35.2-28.6-63.8-63.8-63.8S190.8,31.8,190.8,67c0,0.2,0,0.4,0,0.6c-28.6,9.7-54.8,26-76.3,47.5 c-21.5,21.5-37.9,47.8-47.7,76.5c-34.2,1.2-61.6,29.3-61.6,63.8s27.4,62.6,61.6,63.8c9.8,28.7,26.2,55,47.7,76.5 c21.5,21.4,47.7,37.7,76.2,47.4c0,0.2,0,0.4,0,0.6c0,35.2,28.6,63.8,63.8,63.8s63.8-28.6,63.8-63.8c0-0.2,0-0.4,0-0.6 c28.6-9.7,54.9-26.1,76.3-47.6c21.5-21.5,37.8-47.8,47.6-76.4c0.2,0,0.4,0,0.6,0c35.2,0,63.8-28.6,63.8-63.8 S478.1,191.5,442.9,191.5z M254.6,23c24.3,0,44,19.7,44,44c0,24.3-19.7,44-44,44c-24.3,0-44-19.7-44-44 C210.6,42.7,230.3,23,254.6,23z M25.1,255.3c0-24.3,19.7-44,44-44c24.3,0,44,19.7,44,44s-19.7,44-44,44 C44.8,299.3,25.1,279.6,25.1,255.3z M254.6,487.6c-24.3,0-44-19.7-44-44c0-24.3,19.7-44,44-44c24.3,0,44,19.7,44,44 C298.6,467.9,278.9,487.6,254.6,487.6z M380.7,381.5c-18.6,18.6-41.1,32.9-65.7,41.7c-8.5-25.2-32.4-43.4-60.5-43.4 c-28.1,0-51.9,18.2-60.5,43.4c-24.5-8.8-47-23.1-65.5-41.6c-18.4-18.4-32.7-40.7-41.6-65c26.5-7.8,45.9-32.3,45.9-61.3 c0-29-19.4-53.5-45.9-61.3c8.9-24.3,23.1-46.6,41.5-65c18.6-18.5,41.1-32.8,65.6-41.7c8.5,25.2,32.4,43.4,60.5,43.4 c28.1,0,51.9-18.2,60.5-43.4c24.6,8.9,47.1,23.2,65.7,41.8c18.6,18.6,32.9,41.1,41.7,65.6c-25.2,8.5-43.4,32.4-43.4,60.5 c0,28.1,18.2,51.9,43.4,60.5C413.6,340.4,399.3,362.9,380.7,381.5z M442.9,299.3c-24.3,0-44-19.7-44-44s19.7-44,44-44 s44,19.7,44,44S467.2,299.3,442.9,299.3z"></path> <path fill="#FF5F82" d="M254.6,101.5c19,0,34.5-15.5,34.5-34.5s-15.5-34.5-34.5-34.5S220.1,48,220.1,67S235.6,101.5,254.6,101.5z M254.6,52.3c8.1,0,14.6,6.6,14.6,14.6s-6.6,14.6-14.6,14.6C246.5,81.6,240,75,240,67S246.5,52.3,254.6,52.3z"></path> <path fill="#FF5F82" d="M460.2,228.1h-34.5c-5.5,0-9.9,4.4-9.9,9.9v34.5c0,5.5,4.4,9.9,9.9,9.9h34.5c5.5,0,9.9-4.4,9.9-9.9v-34.5 C470.1,232.6,465.7,228.1,460.2,228.1z M450.3,262.6h-14.6V248h14.6V262.6z"></path> <path fill="#FF5F82" d="M254.6,407.8c-3.5,0-6.7,1.8-8.5,4.8l-23.6,39.5c-1.8,3.1-1.9,6.9-0.1,10c1.8,3.1,5.1,5,8.6,5h47.3 c3.6,0,6.9-1.9,8.6-5c1.8-3.1,1.7-6.9-0.1-10l-23.6-39.5C261.3,409.6,258.1,407.8,254.6,407.8z M248.5,447.3l6.1-10.2l6.1,10.2 H248.5z"></path> <path fill="#FF5F82" d="M76.4,276.5c1.9,1.9,4.5,2.9,7,2.9c2.5,0,5.1-1,7-2.9c3.9-3.9,3.9-10.2,0-14l-7.1-7.1l7-7 c3.9-3.9,3.9-10.2,0-14c-3.9-3.9-10.2-3.9-14,0l-7,7l-7-7c-3.9-3.9-10.2-3.9-14,0c-3.9,3.9-3.9,10.2,0,14l7,7l-7,7 c-3.9,3.9-3.9,10.2,0,14c1.9,1.9,4.5,2.9,7,2.9c2.5,0,5.1-1,7-2.9l7-7L76.4,276.5z"></path> <path fill="#FF5F82" d="M38.3,158.8c1.6,3.9,5.3,6.2,9.2,6.2c1.2,0,2.5-0.2,3.7-0.7c5.1-2.1,7.5-7.8,5.5-12.9l-0.1-0.4 c-2.1-5.1-7.8-7.5-12.9-5.5c-5.1,2.1-7.5,7.8-5.5,12.9L38.3,158.8z"></path> </g> </g> </svg> 